<?xml version="1.0" encoding="UTF-8" standalone="no"?>
<!--Generator: Adobe Illustrator 16.0.4, SVG Export Plug-In . SVG Version: 6.00 Build 0)-->

<svg
   version="1.1"
   id="Layer_1"
   x="0px"
   y="0px"
   width="15.792"
   height="19.381567"
   viewBox="0 8.601 15.792 19.381567"
   enable-background="new 0 8.601 75 20"
   xml:space="preserve"
   sodipodi:docname="springer-logo_75x20-124c0f1145.svg"
   inkscape:version="1.4.2 (ebf0e940, 2025-05-08)"
   xmlns:inkscape="http://www.inkscape.org/namespaces/inkscape"
   xmlns:sodipodi="http://sodipodi.sourceforge.net/DTD/sodipodi-0.dtd"
   xmlns="http://www.w3.org/2000/svg"
   xmlns:svg="http://www.w3.org/2000/svg"><defs
     id="defs6" /><sodipodi:namedview
     id="namedview6"
     pagecolor="#ffffff"
     bordercolor="#000000"
     borderopacity="0.25"
     inkscape:showpageshadow="2"
     inkscape:pageopacity="0.0"
     inkscape:pagecheckerboard="0"
     inkscape:deskcolor="#d1d1d1"
     inkscape:zoom="23.306667"
     inkscape:cx="19.393593"
     inkscape:cy="9.9971396"
     inkscape:window-width="2560"
     inkscape:window-height="1321"
     inkscape:window-x="1800"
     inkscape:window-y="30"
     inkscape:window-maximized="1"
     inkscape:current-layer="Layer_1" /><path
     fill="#002b5c"
     d="m 2.851,23.957566 v -0.795 h 1.098 c 0.191,-2.575 2.658,-3.532 4.029,-5.614 h -1.59 c -0.768,0.273 -1.918,1.972 -1.918,2.957 H 2.468 l 0.027,-0.82 -0.658,0.544 -1.755,-2.025 c 0,0 -0.082,-0.108 -0.082,-0.191 0,-0.083 0.027,-0.136 0.027,-0.136 l 2.769,-3.752 0.494,-1.479 0.74,-0.273 0.769,-1.07 -0.275,-1.8649995 c 0.74,-0.271 1.454,-0.026 1.809,0.329 0.027,-0.545 -0.028,-1.15 -0.028,-1.15 1.316,-0.135 1.78,0.576 2.002,1.371 0.356,0.027 0.685,0.081 0.986,0.1369995 0.054,-0.1639995 0.219,-0.3009995 0.412,-0.3009995 0.247,0 0.413,0.1909995 0.413,0.4099995 v 0.109 c 0.576,0.193 1.122,0.464 1.615,0.768 0.083,-0.11 0.192,-0.165 0.328,-0.165 0.248,0 0.413,0.192 0.413,0.411 0,0.11 -0.027,0.191 -0.081,0.246 0.465,0.383 0.849,0.85 1.206,1.344 0.055,-0.028 0.136,-0.056 0.191,-0.056 0.246,0 0.438,0.192 0.438,0.411 0,0.163 -0.081,0.302 -0.219,0.356 0.274,0.494 0.494,1.042 0.659,1.616 0.028,-0.028 0.082,-0.028 0.109,-0.028 0.246,0 0.411,0.192 0.411,0.411 0,0.219 -0.137,0.384 -0.302,0.412 0.11,0.573 0.192,1.151 0.247,1.752 0.247,0 0.439,0.192 0.439,0.412 0,0.247 -0.192,0.409 -0.412,0.438 0,0.574 -0.027,1.205 -0.082,1.809 0.219,0.025 0.385,0.217 0.385,0.437 0,0.22 -0.191,0.413 -0.439,0.413 h -0.027 c -0.11,0.6 -0.219,1.203 -0.356,1.833 h 1.151 v 0.795 H 2.851 Z m 5.62,-13.12 c 0.027,0.274 0.027,0.495 0.027,0.712 0,0.329 -0.027,0.603 -0.027,0.603 l -0.796,-0.136 c 0.028,-0.275 0.083,-2.1379995 -0.575,-2.5479995 0,0 0,0.9849995 -0.22,1.9709995 l -0.74,-0.135 c 0,-0.685 -0.301,-0.959 -0.712,-1.149 l 0.191,1.34 -0.466,0.684 0.221,0.631 -1.454,0.491 -0.411,1.179 -2.549,3.505 0.959,1.15 1.07,-0.902 0.246,0.164 v 1.342 h 0.576 c 0.246,-0.959 1.041,-2.082 1.781,-2.629 l -0.412,-0.494 0.603,-0.518 0.577,0.711 c 0,0 2.058,0 2.058,-0.028 0.3,-0.659 0.492,-1.452 0.492,-2.382 h 0.795 c 0,3.123 -1.562,4.353 -3.509,6.271 -0.713,0.711 -1.343,1.479 -1.425,2.52 h 9.046 c 1.589,-6.548 -0.275,-11.752 -5.346,-12.353 m -6.304,7.476 -0.577,-0.217 c 0.191,-0.275 0.302,-0.658 0.302,-0.986 l 0.493,0.026 c 0.027,0.356 -0.028,0.904 -0.218,1.177 m 2.136,-3.559 -0.082,-1.014 1.289,-0.137 0.028,0.494 z"
     id="path5" /><path
     fill="#f58025"
     d="m 2.857,26.395566 h 12.911 v 1.587 H 2.857 Z"
     id="path6" /></svg>
