<?xml version="1.0" encoding="UTF-8" standalone="no"?>
<svg
   fill="none"
   viewBox="0 0 26.920001 10.325479"
   width="377.61755"
   height="377.61752"
   version="1.1"
   id="svg3"
   sodipodi:docname="1961c5ef-6f50-4a5f-9f26-941a069a9c59.svg"
   inkscape:version="1.4.2 (ebf0e940, 2025-05-08)"
   xmlns:inkscape="http://www.inkscape.org/namespaces/inkscape"
   xmlns:sodipodi="http://sodipodi.sourceforge.net/DTD/sodipodi-0.dtd"
   xmlns="http://www.w3.org/2000/svg"
   xmlns:svg="http://www.w3.org/2000/svg">
  <defs
     id="defs3" />
  <sodipodi:namedview
     id="namedview3"
     pagecolor="#ffffff"
     bordercolor="#000000"
     borderopacity="0.25"
     inkscape:showpageshadow="2"
     inkscape:pageopacity="0.0"
     inkscape:pagecheckerboard="0"
     inkscape:deskcolor="#d1d1d1"
     inkscape:zoom="0.10932199"
     inkscape:cx="5117.9092"
     inkscape:cy="-2241.0862"
     inkscape:window-width="2560"
     inkscape:window-height="1321"
     inkscape:window-x="1800"
     inkscape:window-y="30"
     inkscape:window-maximized="1"
     inkscape:current-layer="svg3" />
  <path
     fill="#3e508e"
     d="M 26.800961,-8.2967653 H 0.13095999 c -0.0718,0 -0.13000000442,0.0582 -0.13000000442,0.13 V 18.503234 c 0.006700004,0.07333 0.0500000044,0.113333 0.13000000442,0.12 H 26.800961 c 0.07333,0 0.113333,-0.04 0.12,-0.12 V -8.1667653 c 2.02e-4,-0.06807 -0.05214,-0.124764 -0.12,-0.13 m -2.12,24.5499993 c -0.0067,0.08 -0.05,0.123333 -0.13,0.13 H 2.37096 c -0.0718,0 -0.13,-0.0582 -0.13,-0.13 V -5.9267653 c 0.0067,-0.08 0.05,-0.123333 0.13,-0.13 h 22.180001 c 0.08,0.0067 0.123333,0.05 0.13,0.13 z"
     id="path2"
     sodipodi:nodetypes="cssccscccccssccccc" />
  <path
     fill="#3e508e"
     d="m 11.900961,8.3332347 v -0.04 c 2.197126,-1.499739 1.130173,-4.937699 -1.53,-4.93 H 4.49096 V 14.133234 h 5.850001 c 1.729183,0.03406 3.142943,-1.370634 3.12,-3.1 0.02533,-1.1207825 -0.576365,-2.1621723 -1.56,-2.6999993 m -5.240001,-3.13 h 2.530001 c 0.66,0 1.73,0.14 1.73,1.2 0,1.03 -1,1.2 -1.73,1.2 H 6.66096 Z m 2.43,7.0499993 h -2.43 V 9.3632347 h 2.43 c 0.800001,0 2.080001,0.15 2.080001,1.4399993 0,0.89 -0.73,1.44 -2.080001,1.44 M 21.650961,8.9532347 v 5.1799993 h -1.93 V 9.6732347 c 0,-1.4 -0.9,-1.91 -1.78,-1.82 -0.53,0.05 -1.32,0.4 -1.3,1.62 v 4.6599993 h -2.17 V 3.3732347 h 2.16 v 3.7 c 1.5,-1.82 5.02,-1.02 5.02,1.88 m -4.97,-12.76 c -1.41,0 -2,0.73 -2,1.8 0,1.07000005 0.6,1.79000005 1.98,1.79000005 1.5,0 2.03,-0.80000005 2.03,-1.80000005 0,-0.98 -0.53,-1.8 -2.01,-1.8 m 0,2.7500001 c -0.6,0 -0.85,-0.4300001 -0.85,-0.9600001 0,-0.52 0.25,-0.95 0.85,-0.95 0.61,0 0.86,0.44 0.86,0.95 0,0.47 -0.2,0.9600001 -0.86,0.9600001 m 5.76,-2.7400001 v 0.94 l -1.52,2.65000005 h -1.38 l 1.52,-2.65000005 h -2.08 v -0.94 z m -8.41,0 h -1.2 v 3.59000005 h 1.2 z"
     id="path3"
     sodipodi:nodetypes="cccccccccssscccccssccccscccccccccsssccssscccccccccccccc" />
</svg>
