<?xml version="1.0" encoding="UTF-8" standalone="no"?>
<svg
   width="174.56"
   height="127.99"
   version="1.1"
   viewBox="0 0 174.56 127.99"
   id="svg12"
   sodipodi:docname="notebook-logo.svg"
   inkscape:version="1.4.2 (ebf0e940, 2025-05-08)"
   xmlns:inkscape="http://www.inkscape.org/namespaces/inkscape"
   xmlns:sodipodi="http://sodipodi.sourceforge.net/DTD/sodipodi-0.dtd"
   xmlns="http://www.w3.org/2000/svg"
   xmlns:svg="http://www.w3.org/2000/svg">
  <defs
     id="defs12" />
  <sodipodi:namedview
     id="namedview12"
     pagecolor="#ffffff"
     bordercolor="#000000"
     borderopacity="0.25"
     inkscape:showpageshadow="2"
     inkscape:pageopacity="0.0"
     inkscape:pagecheckerboard="0"
     inkscape:deskcolor="#d1d1d1"
     inkscape:zoom="6.0781394"
     inkscape:cx="87.279999"
     inkscape:cy="63.999848"
     inkscape:window-width="1800"
     inkscape:window-height="1041"
     inkscape:window-x="0"
     inkscape:window-y="39"
     inkscape:window-maximized="1"
     inkscape:current-layer="svg12" />
  <!-- Generator: Adobe Illustrator 28.7.1, SVG Export Plug-In . SVG Version: 1.2.0 Build 142)  -->
  <g
     id="g12"
     style="fill:#000000;fill-opacity:1"
     transform="translate(0,-1.14)">
    <g
       id="Layer_1"
       style="fill:#000000;fill-opacity:1">
      <g
         id="g11"
         style="fill:#000000;fill-opacity:1">
        <path
           d="M 87.27,1.14 C 39.07,1.14 0,39.88 0,87.69 v 41.44 H 16.09 V 125 c 0,-19.39 15.84,-35.11 35.39,-35.11 19.55,0 35.39,15.72 35.39,35.11 v 4.13 h 16.09 V 125 c 0,-28.2 -23.05,-51.05 -51.48,-51.05 -11.07,0 -21.32,3.46 -29.72,9.37 C 30.55,66 48.64,54.11 69.53,54.11 c 29.51,0 53.44,23.74 53.44,53 v 22.02 h 16.09 v -22.02 c 0,-38.08 -31.13,-68.96 -69.53,-68.96 -17.27,0 -33.06,6.24 -45.22,16.58 11.94,-22.39 35.65,-37.64 62.97,-37.64 39.32,0 71.19,31.61 71.19,70.6 v 41.44 h 16.09 V 87.69 C 174.55,39.88 135.48,1.14 87.27,1.14 Z"
           fill="#fff"
           id="path11"
           style="fill:#000000;fill-opacity:1" />
      </g>
    </g>
  </g>
</svg>
