<?xml version="1.0" encoding="UTF-8" standalone="no"?>
<svg
   id="Layer_2"
   viewBox="0 0 28.549999 39.609999"
   version="1.1"
   sodipodi:docname="SAGE_Publishing_logo_2023.svg"
   width="28.549999"
   height="39.610001"
   inkscape:version="1.4.2 (ebf0e940, 2025-05-08)"
   xmlns:inkscape="http://www.inkscape.org/namespaces/inkscape"
   xmlns:sodipodi="http://sodipodi.sourceforge.net/DTD/sodipodi-0.dtd"
   xmlns="http://www.w3.org/2000/svg"
   xmlns:svg="http://www.w3.org/2000/svg">
  <sodipodi:namedview
     id="namedview8"
     pagecolor="#ffffff"
     bordercolor="#000000"
     borderopacity="0.25"
     inkscape:showpageshadow="2"
     inkscape:pageopacity="0.0"
     inkscape:pagecheckerboard="0"
     inkscape:deskcolor="#d1d1d1"
     showgrid="false"
     inkscape:zoom="27.770765"
     inkscape:cx="14.2596"
     inkscape:cy="19.805"
     inkscape:window-width="2560"
     inkscape:window-height="1321"
     inkscape:window-x="1800"
     inkscape:window-y="30"
     inkscape:window-maximized="1"
     inkscape:current-layer="g8" />
  <defs
     id="defs1">
    <style
       id="style1">.cls-1{fill:#001a69;}</style>
  </defs>
  <g
     id="Layer_1-2">
    <g
       id="g8">
      <g
         id="g3">
        <path
           class="cls-1"
           d="m 21.8,31.31 c 4.07,-0.17 6.32,-2.38 6.32,-5.61 0,-3.23 -2.4,-5.79 -5.82,-7.48 L 10.52,12.42 C 8.25,11.29 7,9.94 6.74,8.3 2.67,8.47 0.42,10.68 0.42,13.91 c 0,3.23 2.4,5.79 5.82,7.48 l 11.78,5.8 c 2.27,1.13 3.52,2.48 3.78,4.12 z"
           id="path1" />
        <path
           class="cls-1"
           d="M 2.84,7.46 C 5.8,3.31 9.14,0 14.54,0 18.77,0 24.36,1.45 28.55,5.02 L 22.8,12.44 C 18.07,7.96 8.11,5.1 2.84,7.46 Z"
           id="path2" />
        <path
           class="cls-1"
           d="m 25.71,32.15 c -2.97,4.15 -6.3,7.46 -11.7,7.46 C 9.78,39.61 4.19,38.16 0,34.59 l 5.75,-7.42 c 4.73,4.49 14.69,7.34 19.96,4.98 z"
           id="path3" />
      </g>
    </g>
  </g>
</svg>
