<?xml version="1.0" encoding="UTF-8" standalone="no"?>
<!-- Generator: Adobe Illustrator 16.0.0, SVG Export Plug-In . SVG Version: 6.00 Build 0)  -->

<svg
   version="1.1"
   id="图层_1"
   x="0px"
   y="0px"
   width="325.255"
   height="325.25558"
   viewBox="0 0 328.54041 328.54099"
   enable-background="new 0 0 1951 337.372"
   xml:space="preserve"
   sodipodi:docname="whuemslogo.svg"
   inkscape:version="1.4.3 (0d15f75, 2025-12-25)"
   xmlns:inkscape="http://www.inkscape.org/namespaces/inkscape"
   xmlns:sodipodi="http://sodipodi.sourceforge.net/DTD/sodipodi-0.dtd"
   xmlns="http://www.w3.org/2000/svg"
   xmlns:svg="http://www.w3.org/2000/svg"><defs
   id="defs64" /><sodipodi:namedview
   id="namedview64"
   pagecolor="#ffffff"
   bordercolor="#000000"
   borderopacity="0.25"
   inkscape:showpageshadow="2"
   inkscape:pageopacity="0.0"
   inkscape:pagecheckerboard="0"
   inkscape:deskcolor="#d1d1d1"
   showgrid="false"
   inkscape:zoom="2.5019709"
   inkscape:cx="164.07065"
   inkscape:cy="164.27049"
   inkscape:window-width="1800"
   inkscape:window-height="1041"
   inkscape:window-x="0"
   inkscape:window-y="39"
   inkscape:window-maximized="1"
   inkscape:current-layer="图层_1" />

<g
   id="g19"
   transform="translate(-2.884,-4.193)">
	<path
   fill-rule="evenodd"
   clip-rule="evenodd"
   fill="#003586"
   d="M 169.214,318.122 C 86.818,319.275 18.649,252.974 17.55,170.579 16.397,88.182 82.698,20.014 165.094,18.916 c 82.396,-1.154 150.565,65.146 151.664,147.543 1.153,82.396 -65.149,150.564 -147.544,151.663 z m -0.55,-41.528 C 109.119,277.418 59.847,229.518 59.079,169.973 58.254,110.483 106.154,61.211 165.699,60.388 c 59.544,-0.771 108.763,47.13 109.586,106.675 0.769,59.49 -47.131,108.762 -106.621,109.531 z"
   id="path7" />
	<path
   fill-rule="evenodd"
   clip-rule="evenodd"
   fill="#fefefe"
   d="m 38.645,205.293 0.055,0.275 c -1.099,1.044 -1.484,2.143 -1.099,3.295 0.659,1.648 1.647,2.197 3.131,1.704 0.824,-0.33 1.428,-1.539 1.758,-3.682 0.385,-3.13 1.538,-5.052 3.351,-5.713 3.076,-0.822 5.329,0.605 6.756,4.286 0.385,1.208 0.55,2.527 0.44,3.845 -0.989,0 -2.032,0.109 -3.021,0.386 l -0.165,-0.441 c 1.428,-0.933 1.923,-2.197 1.373,-3.9 -0.604,-1.646 -1.648,-2.252 -3.131,-1.865 -1.044,0.384 -1.649,1.646 -1.868,3.897 -0.33,2.913 -1.483,4.671 -3.515,5.385 -2.967,0.934 -5.109,-0.274 -6.427,-3.517 -0.385,-1.427 -0.44,-2.745 -0.165,-3.955 0.33,0.055 0.769,0.055 1.263,0.055 0.603,0 0.989,0 1.264,-0.055 z m 6.261,-18.621 0.165,-0.275 2.033,0.11 c 0.714,1.319 1.263,2.803 1.648,4.449 0.768,5.603 -1.264,9.01 -6.152,10.107 -5.549,0.771 -9.009,-1.756 -10.382,-7.688 -0.22,-1.868 -0.11,-3.517 0.384,-4.945 0.385,0.11 0.934,0.164 1.703,0.164 0.33,0 0.604,0 0.714,-0.054 l 0.054,0.384 c -1.153,1.265 -1.647,2.639 -1.482,4.176 0.769,3.405 3.46,4.834 8.075,4.175 4.284,-0.88 6.208,-3.132 5.712,-6.703 -0.274,-1.481 -1.099,-2.745 -2.472,-3.9 z m 2.307,-2.253 -15.93,1.155 c 0,-0.22 0,-0.494 0.055,-0.88 0.056,-0.329 0,-0.658 -0.055,-0.879 0,-0.22 -0.056,-0.493 -0.056,-0.933 -0.109,-0.386 -0.165,-0.66 -0.165,-0.824 l 6.317,-0.44 c 0,-1.263 -0.055,-2.471 -0.165,-3.681 -0.055,-1.207 -0.165,-2.36 -0.329,-3.625 l -6.317,0.495 c 0,-0.222 0,-0.495 0,-0.879 0.055,-0.329 0.055,-0.658 -0.055,-0.879 0.055,-0.22 0.055,-0.495 -0.055,-0.824 -0.055,-0.385 -0.11,-0.714 -0.165,-0.933 l 15.929,-1.101 c 0,0.606 0.055,1.154 0.11,1.704 0.055,0.658 0.055,1.209 0.109,1.757 l -7.689,0.55 c 0.055,1.209 0.055,2.416 0.11,3.625 0.109,1.21 0.274,2.416 0.439,3.626 l 7.636,-0.494 c 0.055,0.549 0.109,1.099 0.165,1.702 0.002,0.607 0.056,1.211 0.111,1.758 z m -7.8,-34.274 c 5.274,0.933 7.746,4.284 7.526,9.995 -0.715,5.658 -3.681,8.294 -8.955,8.02 -5.273,-0.768 -7.799,-4.119 -7.635,-9.998 0.605,-5.381 3.625,-8.073 9.064,-8.017 z m -7.69,8.294 c -0.165,3.515 2.251,5.492 7.306,5.932 4.01,0.165 6.207,-1.319 6.647,-4.396 0.165,-3.294 -2.198,-5.217 -7.031,-5.933 -4.175,-0.108 -6.482,1.375 -6.922,4.397 z m 11.975,-27.466 c 5.054,1.759 6.977,5.438 5.877,11.042 -1.538,5.437 -4.943,7.634 -10.106,6.536 -5.109,-1.593 -7.086,-5.329 -5.933,-11.096 1.428,-5.218 4.779,-7.415 10.162,-6.482 z m -8.899,6.977 c -0.715,3.406 1.373,5.766 6.317,6.976 3.955,0.823 6.372,-0.274 7.196,-3.296 0.714,-3.186 -1.318,-5.492 -5.988,-6.92 -4.119,-0.771 -6.591,0.328 -7.525,3.24 z m 3.35,-14.501 13.513,4.667 c 0.275,-0.657 0.55,-1.428 0.77,-2.251 0.165,-0.771 0.385,-1.813 0.604,-3.022 0.055,0.109 0.11,0.165 0.165,0.165 0.22,0.109 0.439,0.274 0.715,0.331 0.274,0.111 0.549,0.165 0.934,0.22 0.055,0.055 0.109,0 0.109,-0.056 l -2.912,8.57 -15.051,-5.219 c 0.055,-0.22 0.165,-0.494 0.384,-0.879 0.166,-0.33 0.275,-0.604 0.275,-0.88 0.055,-0.109 0.11,-0.33 0.22,-0.659 0.109,-0.439 0.165,-0.768 0.274,-0.987 z M 59.133,98.563 c 4.284,3.131 5.054,7.252 2.361,12.305 -3.076,4.725 -6.921,5.823 -11.535,3.242 -4.395,-3.021 -5.218,-7.14 -2.472,-12.359 2.857,-4.614 6.757,-5.659 11.646,-3.188 z m -10.546,4.066 c -1.704,3.022 -0.385,5.877 3.954,8.516 3.571,1.922 6.207,1.591 7.91,-1.044 1.538,-2.856 0.274,-5.658 -3.735,-8.405 -3.735,-1.923 -6.427,-1.649 -8.129,0.933 z m 13.897,-8.35 6.097,4.505 c -0.274,0.439 -0.659,0.933 -0.989,1.427 -0.384,0.494 -0.715,0.989 -1.044,1.43 l -12.854,-9.45 5.274,-7.304 c 0.165,0.274 0.384,0.494 0.713,0.712 0.219,0.22 0.55,0.33 0.878,0.439 -1.317,1.429 -2.471,2.859 -3.515,4.285 l 4.065,2.967 1.537,-2.086 c 0.385,-0.44 0.879,-1.209 1.428,-2.307 0.111,0.054 0.221,0.163 0.33,0.328 0.22,0.165 0.329,0.22 0.439,0.33 0.11,0.055 0.221,0.165 0.385,0.275 0.219,0.054 0.384,0.165 0.493,0.219 -0.603,0.771 -1.208,1.484 -1.813,2.197 z m 1.922,-16.15 6.262,-6.482 c 0.11,0.274 0.33,0.551 0.604,0.825 0.22,0.22 0.494,0.385 0.824,0.549 -1.483,1.209 -2.856,2.472 -4.065,3.736 l 3.625,3.516 1.703,-1.759 c 0.713,-0.771 1.373,-1.483 1.867,-2.197 0.056,0.055 0.165,0.22 0.275,0.385 0.165,0.165 0.274,0.274 0.384,0.383 0.055,0.055 0.165,0.165 0.329,0.329 0.221,0.111 0.386,0.22 0.44,0.275 -0.605,0.605 -1.318,1.264 -2.088,1.978 l -1.703,1.757 4.23,4.175 c 0.934,-0.988 1.703,-1.757 2.197,-2.362 0.55,-0.658 0.989,-1.319 1.374,-1.867 0,0.054 0.055,0.165 0.055,0.165 0.165,0.219 0.33,0.438 0.549,0.659 0.166,0.166 0.44,0.386 0.715,0.604 0.055,0 0.109,0 0.165,-0.054 l -6.262,6.536 z m 26.367,-6.701 h 0.329 l 0.934,1.814 c -0.77,1.319 -1.758,2.525 -3.021,3.681 -4.45,3.461 -8.349,3.406 -11.756,-0.329 -3.46,-4.45 -2.966,-8.736 1.429,-12.911 1.483,-1.097 2.912,-1.865 4.45,-2.142 0.055,0.386 0.33,0.934 0.714,1.539 0.165,0.33 0.275,0.548 0.384,0.659 l -0.274,0.222 c -1.648,-0.332 -3.131,-0.111 -4.395,0.823 -2.527,2.361 -2.363,5.438 0.439,9.116 2.966,3.298 5.823,3.846 8.678,1.594 1.101,-0.933 1.814,-2.307 2.089,-4.066 z m 12.853,-14.941 c 2.362,4.78 1.208,8.789 -3.46,12.031 -4.834,2.856 -8.789,2.033 -11.756,-2.416 -2.526,-4.67 -1.428,-8.736 3.407,-12.086 4.614,-2.803 8.569,-1.978 11.809,2.471 z m -11.26,-1.208 c -2.857,1.922 -2.967,5.109 -0.275,9.393 2.307,3.352 4.778,4.284 7.47,2.691 2.692,-1.813 2.857,-4.889 0.44,-9.173 -2.362,-3.405 -4.943,-4.393 -7.635,-2.911 z m 16.424,7.086 -6.481,-14.611 2.087,-0.989 c 1.482,0.715 3.021,1.374 4.613,2.033 3.9,1.648 6.922,2.967 9.009,3.899 l -4.395,-10.052 c 0.274,-0.11 0.549,-0.22 0.879,-0.385 0.274,-0.109 0.549,-0.274 0.879,-0.384 l 6.481,14.667 -1.868,0.823 c -1.264,-0.494 -3.131,-1.262 -5.548,-2.362 -2.252,-0.988 -3.955,-1.813 -5.164,-2.36 l -3.406,-1.374 4.56,10.381 c -0.274,0.109 -0.549,0.221 -0.824,0.386 -0.327,0.109 -0.603,0.274 -0.822,0.328 z m 29.333,-19.446 c 0.879,5.274 -1.374,8.79 -6.812,10.546 -5.438,1.265 -8.954,-0.657 -10.492,-5.765 -1.098,-5.275 1.153,-8.791 6.756,-10.604 5.22,-1.262 8.736,0.66 10.548,5.823 z M 127.741,38.47 c -3.351,1.045 -4.34,4.01 -3.021,8.955 1.208,3.844 3.351,5.437 6.372,4.724 3.076,-0.936 4.12,-3.846 3.076,-8.624 -1.263,-4.01 -3.46,-5.658 -6.427,-5.055 z m 21.533,5.549 c 0.329,-1.1 0.768,-2.307 1.208,-3.516 1.263,-3.462 2.197,-6.152 2.912,-8.185 0.055,0 0.165,0 0.439,0.056 0.165,0.054 0.33,0 0.439,-0.056 0.111,0 0.331,-0.055 0.55,-0.055 0.165,-0.109 0.33,-0.165 0.439,-0.165 0.056,0.438 0.221,1.044 0.44,1.813 1.538,6.537 2.747,11.15 3.625,13.843 -0.659,0.109 -1.318,0.165 -1.922,0.274 -0.714,0.056 -1.375,0.165 -1.923,0.22 -0.33,-1.813 -0.934,-4.558 -1.813,-8.13 -0.165,-0.878 -0.329,-1.703 -0.495,-2.581 -1.374,3.846 -2.636,7.688 -3.845,11.479 -0.33,-0.054 -0.604,0 -0.934,0.111 -1.263,-2.033 -3.406,-5.328 -6.372,-9.887 -0.055,2.582 -0.055,4.669 0.055,6.208 0,1.591 0.109,3.075 0.329,4.395 -0.439,0.054 -0.824,0.109 -1.208,0.165 -0.33,0.054 -0.659,0.109 -0.989,0.109 0.11,-2.581 0.22,-7.088 0.33,-13.405 0,-0.933 0.055,-1.867 0.109,-2.801 0.055,0 0.22,0 0.44,0.056 0.22,0 0.385,0 0.494,-0.056 0.11,0 0.274,0 0.44,-0.054 0.165,-0.111 0.329,-0.165 0.549,-0.165 0.935,1.648 3.133,5.108 6.703,10.327 z m 11.536,3.79 -0.275,-16.041 c 0.22,0 0.494,0.056 0.934,0.111 0.384,0 0.659,-0.055 0.823,-0.055 0.165,0.109 0.495,0.055 0.934,0 0.33,-0.056 0.66,-0.109 0.879,-0.109 l 0.275,16.039 c -0.604,0 -1.209,0.055 -1.813,0.055 -0.549,0 -1.098,0 -1.757,0 z m 18.565,-2.692 0.275,0.165 -0.494,2.031 c -1.429,0.497 -2.966,0.715 -4.669,0.771 -5.602,-0.274 -8.514,-2.967 -8.678,-8.021 0.274,-5.658 3.46,-8.568 9.502,-8.733 1.813,0.055 3.406,0.494 4.725,1.262 -0.166,0.329 -0.331,0.935 -0.44,1.648 -0.11,0.385 -0.11,0.604 -0.11,0.714 h -0.384 c -1.044,-1.373 -2.308,-2.142 -3.791,-2.253 -3.515,0.111 -5.383,2.53 -5.657,7.197 0.055,4.395 1.867,6.702 5.492,6.921 1.483,10e-4 2.857,-0.548 4.229,-1.702 z m 10.492,-8.735 h -0.274 c -0.439,-1.483 -1.263,-2.307 -2.472,-2.416 -1.702,-0.109 -2.636,0.603 -2.801,2.142 -0.11,0.878 0.713,1.923 2.526,3.131 2.638,1.702 3.9,3.515 3.736,5.492 -0.55,3.131 -2.802,4.613 -6.702,4.395 -1.264,-0.22 -2.526,-0.605 -3.68,-1.208 0.439,-0.989 0.768,-1.977 0.989,-2.967 l 0.439,0.054 c 0.165,1.649 1.153,2.639 2.911,2.857 1.704,0.165 2.692,-0.551 2.967,-2.087 0.109,-1.1 -0.77,-2.197 -2.692,-3.351 -2.472,-1.483 -3.57,-3.296 -3.351,-5.438 0.439,-3.076 2.417,-4.56 5.878,-4.395 1.427,0.22 2.636,0.715 3.625,1.483 -0.165,0.329 -0.384,0.714 -0.604,1.155 -0.22,0.55 -0.384,0.935 -0.495,1.153 z m 15.052,12.195 -5.218,-1.429 c -0.11,0.111 -0.22,0.277 -0.331,0.441 -1.153,1.646 -2.032,2.91 -2.526,3.789 -0.33,-0.109 -0.714,-0.22 -1.043,-0.274 -0.384,-0.11 -0.77,-0.22 -1.153,-0.329 l 10.766,-14.008 c 0.165,0.165 0.44,0.274 0.77,0.329 0.274,0.112 0.549,0.166 0.878,0.112 l 2.088,17.466 c -0.66,-0.165 -1.318,-0.33 -1.923,-0.494 -0.66,-0.219 -1.318,-0.383 -1.978,-0.548 -0.056,-1.648 -0.166,-3.351 -0.33,-5.055 z m -4.34,-2.691 4.175,1.099 -0.55,-5.769 z m 9.284,9.393 6.481,-14.611 2.087,0.934 c 0.496,1.538 1.044,3.13 1.593,4.724 1.428,4.064 2.472,7.194 3.187,9.394 l 4.394,-9.998 c 0.33,0.111 0.604,0.275 0.934,0.385 0.274,0.165 0.549,0.274 0.824,0.385 l -6.428,14.665 -1.867,-0.823 c -0.496,-1.319 -1.155,-3.187 -1.978,-5.712 -0.77,-2.362 -1.319,-4.175 -1.704,-5.439 l -1.263,-3.513 -4.615,10.381 c -0.274,-0.109 -0.549,-0.219 -0.823,-0.383 -0.329,-0.115 -0.603,-0.28 -0.822,-0.389 z m 23.675,-6.482 6.755,4.229 c 3.681,2.693 4.34,6.097 2.087,10.218 -3.076,4.394 -7.03,5.273 -11.81,2.637 l -5.492,-3.461 z m 2.197,3.022 -6.977,11.26 1.704,1.099 c 3.186,2.033 6.042,1.043 8.568,-3.022 2.142,-3.459 1.703,-6.206 -1.318,-8.129 z m 17.139,24.884 c 1.099,-0.385 2.252,-0.825 3.46,-1.265 3.405,-1.262 6.098,-2.251 8.075,-3.02 0.055,0 0.109,0.165 0.274,0.383 0.11,0.165 0.22,0.275 0.329,0.275 0.111,0.109 0.221,0.219 0.386,0.383 0.165,0.111 0.329,0.165 0.384,0.274 -0.274,0.275 -0.659,0.771 -1.099,1.485 -4.01,5.383 -6.756,9.284 -8.185,11.7 -0.494,-0.494 -0.989,-0.934 -1.428,-1.319 -0.55,-0.494 -0.989,-0.933 -1.374,-1.318 1.153,-1.427 2.801,-3.68 4.998,-6.646 0.55,-0.659 1.044,-1.372 1.594,-2.033 -3.791,1.429 -7.526,2.857 -11.151,4.395 -0.22,-0.275 -0.439,-0.494 -0.714,-0.659 0.714,-2.253 1.868,-6.043 3.461,-11.26 -2.033,1.647 -3.571,2.966 -4.725,4.01 -1.208,1.042 -2.251,2.087 -3.131,3.13 -0.329,-0.33 -0.604,-0.605 -0.878,-0.823 -0.275,-0.274 -0.494,-0.497 -0.715,-0.716 2.033,-1.591 5.494,-4.395 10.383,-8.405 0.713,-0.548 1.427,-1.151 2.197,-1.702 0.055,0.054 0.165,0.165 0.274,0.386 0.109,0.165 0.219,0.274 0.329,0.329 0.056,0.109 0.165,0.219 0.331,0.33 0.219,0.054 0.329,0.165 0.494,0.274 -0.659,1.814 -1.868,5.769 -3.569,11.812 z m 12.853,14.391 -3.405,-4.229 c -0.11,0.054 -0.275,0.054 -0.44,0.165 -1.921,0.603 -3.351,1.152 -4.284,1.539 -0.22,-0.277 -0.439,-0.551 -0.714,-0.826 -0.219,-0.329 -0.494,-0.659 -0.713,-0.933 l 16.863,-5 c 0.055,0.274 0.165,0.551 0.44,0.715 0.109,0.274 0.33,0.494 0.659,0.659 l -8.514,15.379 c -0.439,-0.549 -0.879,-1.042 -1.263,-1.591 -0.44,-0.496 -0.879,-1.045 -1.264,-1.594 0.932,-1.373 1.81,-2.801 2.635,-4.284 z m -1.923,-4.726 2.747,3.352 2.911,-4.997 z m 2.252,13.02 13.238,-9.01 1.265,1.923 c -0.385,1.593 -0.77,3.241 -1.155,4.89 -0.933,4.229 -1.702,7.415 -2.252,9.666 l 9.009,-6.152 c 0.165,0.277 0.384,0.551 0.605,0.825 0.165,0.275 0.329,0.549 0.494,0.77 l -13.238,9.009 -1.099,-1.703 c 0.274,-1.374 0.714,-3.352 1.318,-5.934 0.604,-2.361 1.099,-4.229 1.429,-5.494 l 0.77,-3.625 -9.339,6.32 c -0.165,-0.223 -0.329,-0.497 -0.548,-0.771 -0.167,-0.274 -0.332,-0.549 -0.497,-0.714 z m 16.259,19.225 -2.252,-4.943 c -0.165,0 -0.329,0 -0.494,0 -2.032,0.165 -3.516,0.33 -4.505,0.494 -0.164,-0.329 -0.329,-0.659 -0.494,-0.988 -0.165,-0.386 -0.331,-0.77 -0.495,-1.099 l 17.522,-0.714 c 0,0.275 0.11,0.549 0.275,0.823 0.11,0.274 0.275,0.549 0.494,0.768 l -11.919,12.855 c -0.33,-0.605 -0.604,-1.209 -0.879,-1.867 -0.275,-0.605 -0.55,-1.209 -0.824,-1.814 1.21,-1.098 2.418,-2.306 3.571,-3.515 z m -0.713,-5.052 1.812,3.901 4.065,-4.121 z m 9.941,25.103 -6.262,1.813 c -1.317,-2.307 -2.142,-4.23 -2.581,-5.768 -1.484,-5.934 0.165,-9.668 4.999,-11.26 5.383,-1.374 9.063,0.933 11.095,6.865 0.549,1.978 0.605,3.955 0.166,5.933 -0.879,-0.109 -1.704,-0.054 -2.472,0.055 l -0.11,-0.383 c 1.208,-1.43 1.593,-3.133 1.099,-5.11 -1.263,-3.571 -4.175,-4.723 -8.844,-3.625 -4.064,1.263 -5.658,3.681 -4.668,7.306 0.329,1.098 0.769,1.868 1.317,2.307 l 5.273,-1.483 c 0.055,0.55 0.166,1.099 0.386,1.703 0.109,0.547 0.328,1.097 0.602,1.647 z m 9.119,0.988 1.703,8.845 c -0.33,-0.056 -0.659,-0.056 -1.043,0 -0.275,0.109 -0.605,0.218 -0.934,0.383 -0.11,-1.922 -0.33,-3.735 -0.66,-5.494 l -4.944,0.991 0.44,2.416 c 0.219,1.042 0.438,1.978 0.714,2.801 -0.111,0 -0.275,0 -0.439,0 -0.274,0 -0.439,0.055 -0.549,0.109 -0.109,0 -0.275,0 -0.44,0.055 -0.219,0.109 -0.384,0.165 -0.549,0.22 -0.109,-0.879 -0.22,-1.812 -0.33,-2.856 l -0.494,-2.472 -5.823,1.153 c 0.22,1.319 0.495,2.417 0.715,3.187 0.219,0.824 0.438,1.539 0.659,2.196 -0.056,-0.054 -0.11,-0.054 -0.166,-0.054 -0.274,0 -0.548,0 -0.823,0.054 -0.275,0.055 -0.55,0.165 -0.879,0.275 -0.055,0 -0.109,0.054 -0.109,0.109 l -1.704,-8.898 z m -8.074,21.533 c 1.043,0.385 2.197,0.824 3.406,1.374 3.35,1.317 6.042,2.417 8.019,3.186 0,0.054 -0.055,0.165 -0.055,0.439 -0.055,0.221 -0.055,0.331 0,0.441 0.055,0.165 0.055,0.329 0.055,0.548 0.111,0.22 0.166,0.329 0.166,0.494 -0.44,0 -1.043,0.11 -1.813,0.329 -6.592,1.319 -11.206,2.362 -13.898,3.187 -0.054,-0.715 -0.11,-1.318 -0.165,-1.977 -0.055,-0.713 -0.11,-1.375 -0.165,-1.922 1.813,-0.275 4.504,-0.77 8.129,-1.539 0.879,-0.11 1.704,-0.274 2.527,-0.385 -3.735,-1.539 -7.47,-2.965 -11.206,-4.284 0.055,-0.329 0,-0.659 -0.055,-0.935 2.033,-1.207 5.384,-3.24 10.052,-6.097 -2.636,-0.109 -4.668,-0.165 -6.207,-0.165 -1.592,-0.055 -3.076,0 -4.394,0.165 -0.055,-0.385 -0.055,-0.823 -0.109,-1.153 0,-0.383 -0.055,-0.712 -0.055,-1.044 2.581,0.221 7.031,0.497 13.293,0.771 0.934,0.056 1.812,0.109 2.746,0.22 0,0.054 0,0.219 -0.055,0.494 0,0.165 0,0.328 0.055,0.438 -0.055,0.165 -0.055,0.274 0.055,0.496 0.055,0.165 0.111,0.329 0.111,0.549 -1.703,0.876 -5.165,2.964 -10.437,6.37 z m 11.205,12.195 -0.659,9.008 c -0.275,-0.165 -0.604,-0.22 -0.989,-0.275 -0.275,0 -0.659,0 -0.989,0.11 0.33,-1.867 0.604,-3.681 0.713,-5.492 l -4.998,-0.33 -0.166,2.473 c -0.11,1.043 -0.11,1.978 -0.055,2.856 -0.11,0 -0.274,-0.056 -0.439,-0.111 -0.22,-0.054 -0.44,-0.054 -0.55,-0.054 -0.109,0 -0.274,0 -0.438,0 -0.275,0 -0.44,0.054 -0.55,0.054 0.11,-0.88 0.221,-1.813 0.385,-2.854 l 0.165,-2.475 -5.933,-0.438 c -0.109,1.374 -0.165,2.416 -0.165,3.242 0,0.823 0.055,1.646 0.11,2.307 -0.055,-0.055 -0.11,-0.11 -0.165,-0.11 -0.219,-0.054 -0.495,-0.109 -0.824,-0.165 -0.219,0 -0.549,0 -0.879,0.056 -0.055,0 -0.109,0 -0.109,0.056 l 0.605,-9.01 z m -16.644,9.392 15.655,2.803 -0.384,2.252 c -1.373,0.879 -2.801,1.813 -4.174,2.745 -3.572,2.362 -6.373,4.121 -8.295,5.329 l 10.711,1.924 c -0.055,0.329 -0.109,0.658 -0.165,0.987 -0.055,0.33 -0.109,0.604 -0.165,0.935 l -15.654,-2.803 0.329,-1.977 c 1.153,-0.824 2.801,-1.924 5.054,-3.351 2.087,-1.318 3.68,-2.307 4.779,-2.967 l 3.075,-2.088 -11.095,-1.978 c 0.055,-0.274 0.11,-0.604 0.165,-0.878 0.055,-0.382 0.11,-0.657 0.164,-0.933 z m 8.789,26.367 -13.788,-3.734 c 0.165,-0.604 0.33,-1.154 0.495,-1.648 0.11,-0.604 0.274,-1.209 0.439,-1.703 l 13.788,3.681 c 0.219,-0.88 0.439,-2.031 0.659,-3.517 0.11,-0.383 0.165,-0.603 0.219,-0.821 0.221,0.163 0.496,0.273 0.934,0.383 0.275,0.056 0.604,0.109 0.934,0.109 l -3.131,11.757 c -0.274,-0.167 -0.549,-0.276 -0.879,-0.276 -0.384,-0.221 -0.713,-0.274 -0.989,-0.221 0.11,-0.438 0.275,-0.877 0.44,-1.315 0.44,-1.157 0.714,-2.035 0.879,-2.695 z"
   id="path8" />
	<path
   fill="#003586"
   d="m 167.181,332.734 c -45.263,0 -86.35,-18.457 -116.068,-48.23 C 21.341,254.788 2.884,213.699 2.884,168.492 2.884,123.228 21.341,82.139 51.113,52.423 80.831,22.65 121.919,4.193 167.181,4.193 c 45.208,0 86.295,18.457 116.014,48.23 29.771,29.717 48.229,70.805 48.229,116.069 0,45.207 -18.457,86.295 -48.229,116.011 -29.718,29.774 -70.806,48.231 -116.014,48.231 z m 0,-6.703 c 43.34,0 82.726,-17.686 111.29,-46.25 28.563,-28.563 46.251,-67.948 46.251,-111.289 0,-43.397 -17.688,-82.783 -46.251,-111.347 -28.564,-28.508 -67.95,-46.25 -111.29,-46.25 -43.395,0 -82.781,17.741 -111.345,46.25 -28.508,28.564 -46.25,67.949 -46.25,111.347 0,43.34 17.742,82.725 46.25,111.289 28.564,28.564 67.951,46.25 111.345,46.25 z"
   id="path9" />
	<path
   fill-rule="evenodd"
   clip-rule="evenodd"
   fill="#b39d54"
   d="m 129.499,82.47 31.859,-0.109 v 136.172 c -6.372,0 -12.25,0 -12.25,0 0,0 -0.713,21.366 -0.713,22.028 -0.109,0.109 -38.946,6.535 -38.946,6.535 0,0 2.198,-101.567 2.472,-117.33 0.44,0.109 22.412,0 22.412,0 z"
   id="path10" />
	<path
   fill-rule="evenodd"
   clip-rule="evenodd"
   fill="#b39d54"
   d="m 205.357,82.306 -31.859,-0.111 v 136.338 c 6.428,0 12.25,0 12.25,0 0,0 0.714,21.366 0.714,22.028 0.11,0.109 38.946,6.37 38.946,6.37 0,0 -2.142,-101.567 -2.472,-117.33 -0.439,0.109 -22.411,0 -22.411,0 z"
   id="path11" />
	<path
   fill="#fefefe"
   d="M 139.716,211.17 H 89.564 v -47.185 h -7.141 -0.109 l -2.527,-0.109 -0.989,-0.22 c -4.889,-2.361 -8.569,-5.272 -11.151,-8.953 -2.636,-3.681 -4.174,-7.965 -4.779,-13.02 l 4.505,-1.977 c 3.405,3.845 6.536,6.208 9.393,7.308 1.977,0.768 3.79,0.934 5.438,0.548 1.704,-0.33 3.297,-1.262 4.834,-2.581 3.295,-2.966 6.042,-7.801 8.294,-13.514 l 4.78,-0.055 c 1.263,3.242 2.581,5.987 4.009,8.294 h 22.632 c -0.055,0 -0.44,-0.109 -1.374,-0.604 l -0.384,-0.22 c -1.318,-0.877 -2.526,-1.813 -3.516,-2.799 -1.097,-0.991 -1.977,-2.033 -2.636,-3.187 l -0.11,-0.165 -2.087,-4.23 -3.186,-8.185 6.922,4.943 c 3.35,2.254 7.03,2.913 9.777,2.474 0.989,-0.165 1.813,-0.497 2.417,-0.88 0.385,-0.33 0.659,-0.659 0.714,-0.988 0.11,-0.495 -0.055,-1.154 -0.659,-2.033 l -1.483,-1.539 c -0.989,-4.778 -1.593,-8.678 0.934,-12.469 2.526,3.792 5.767,9.394 10.326,10.932 1.593,0.551 3.406,0.604 5.603,0 v -2.582 l -0.769,-0.439 -1.209,-0.771 v -9.392 h 8.734 l 0.605,1.703 0.274,0.713 5.933,0.055 v -0.988 h 0.329 c -0.385,-1.868 -0.55,-4.12 0.549,-7.416 v -0.824 c -0.769,-0.88 -1.099,-2.199 -0.934,-3.571 0.11,-0.825 0.385,-1.704 0.934,-2.525 l -0.11,-3.352 h 9.833 v 3.296 c 0.548,0.824 0.878,1.756 0.989,2.581 0.165,1.373 -0.165,2.747 -0.989,3.627 v 0.603 c 1.153,3.349 0.878,5.658 0.494,7.581 h 0.33 v 0.988 l 5.932,-0.055 0.275,-0.713 0.604,-1.703 h 8.734 v 9.392 l -1.208,0.771 -0.77,0.439 v 2.582 c 2.142,0.604 4.01,0.604 5.603,0.054 4.724,-1.648 7.8,-7.085 10.271,-10.986 l 0.056,7.966 -0.111,4.723 -0.438,1.374 c -0.55,0.824 -0.77,1.539 -0.605,2.033 0.055,0.33 0.33,0.659 0.714,0.933 0.604,0.438 1.428,0.715 2.417,0.88 2.692,0.438 6.373,-0.22 9.723,-2.474 l 6.922,-6.206 -3.187,9.448 -2.088,4.175 -0.109,0.22 c -0.659,1.099 -1.483,2.142 -2.582,3.132 -1.044,1.042 -2.252,1.977 -3.626,2.91 l -0.329,0.165 c -0.66,0.329 -1.263,0.494 -1.923,0.604 h 22.138 c 1.373,-2.307 2.746,-5.052 4.01,-8.294 l 4.778,0.055 c 2.197,5.713 4.999,10.548 8.294,13.514 1.484,1.318 3.131,2.251 4.834,2.581 1.648,0.386 3.46,0.22 5.438,-0.548 2.856,-1.099 5.932,-3.462 9.394,-7.308 l 4.503,1.977 c -0.604,5.055 -2.142,9.339 -4.779,13.02 -2.582,3.681 -6.262,6.592 -11.151,8.953 l -0.989,0.22 -2.526,0.109 h -0.11 -5.109 v 47.021 h -17.963 v -9.337 l -2.087,7.47 -0.548,1.867 h -13.843 l -0.549,-1.867 -2.087,-7.251 v 9.118 H 171.96 l -0.769,-0.823 -2.087,-2.252 c -1.648,0.933 -3.35,1.703 -5.218,2.307 -2.638,0.823 -5.438,1.319 -8.514,1.483 h -0.221 c -5.548,-0.275 -9.777,-1.538 -12.799,-3.79 -1.043,-0.771 -1.922,-1.647 -2.637,-2.638 v 5.876 z m -0.714,-47.185 v 13.734 h -29.829 v 1.045 h 26.532 v 15.324 h -26.532 v 1.759 h 28.125 c 0.274,-2.804 1.153,-5.275 2.636,-7.582 1.264,-1.868 2.911,-3.625 5.053,-5.107 -0.603,-0.77 -1.043,-1.539 -1.428,-2.362 -0.824,-1.757 -1.208,-3.515 -1.098,-5.273 v 0.109 c 0.109,-4.284 1.758,-7.525 4.943,-9.887 0.879,-0.659 1.923,-1.208 3.076,-1.703 z m 84.647,-0.053 h -8.349 -2.197 v 0.109 l 5.328,18.566 5.164,-18.566 z m -32.903,0.109 -22.082,0.055 c 1.264,0.551 2.362,1.209 3.296,1.978 3.021,2.361 4.668,5.603 5.054,9.833 l 0.055,0.219 c 0,2.968 -0.714,5.549 -2.142,7.855 -0.221,0.329 -0.44,0.659 -0.659,0.989 h 15.545 l -1.868,3.735 c -0.989,1.978 -2.142,3.899 -3.46,5.822 -0.879,1.264 -1.758,2.472 -2.747,3.626 l 8.349,8.514 0.659,0.658 z m -32.079,33.012 -2.527,-2.745 c -0.549,0.329 -0.934,0.659 -1.264,1.045 v 0 c -0.274,0.273 -0.384,0.548 -0.384,0.768 v 0.221 c 0,0.603 0.11,0.989 0.274,1.153 0.22,0.221 0.66,0.33 1.428,0.33 0.385,0 0.769,-0.109 1.319,-0.274 0.33,-0.166 0.715,-0.33 1.154,-0.498 z m 1.538,-22.135 c -0.824,0.054 -1.318,0.219 -1.593,0.384 -0.055,0.055 -0.055,0.164 -0.055,0.385 l -0.055,0.22 c 0,0.219 0.109,0.438 0.329,0.77 0.274,0.329 0.659,0.714 1.153,1.043 0.714,-0.385 1.263,-0.823 1.538,-1.265 h 0.056 c 0.165,-0.329 0.219,-0.713 0.109,-1.207 -0.055,0 -0.055,0 -0.109,0 -0.274,-0.165 -0.768,-0.276 -1.373,-0.33 z"
   id="path12" />
	<path
   fill-rule="evenodd"
   clip-rule="evenodd"
   fill="#fefefe"
   d="m 99.067,279.726 c -0.878,0.164 -0.988,0.384 -1.922,0.384 -0.109,0 -0.879,1.373 -0.879,1.429 3.076,3.68 3.021,7.36 0.384,4.998 -2.032,-1.813 -0.439,-0.823 0,-2.472 0.219,-0.714 -0.824,-1.483 -1.428,-2.526 -2.307,1.427 -4.669,2.526 -7.031,-0.109 1.922,-0.826 4.724,0.329 5.877,-0.276 0.22,-0.109 1.758,-1.263 1.647,-1.536 -0.549,-1.595 -1.318,-0.936 -1.702,-1.21 -1.483,-0.11 -2.252,-0.385 -2.527,-0.988 -0.384,-1.044 0.495,-2.527 4.504,0.769 2.527,1.209 3.845,-3.735 5.055,-5.273 1.976,1.209 2.196,3.734 0.384,3.955 -1.263,0.22 -1.868,1.593 -1.648,1.922 1.539,0.496 0.988,-0.109 2.527,0.329 -0.109,2.801 -1.153,1.921 -3.241,0.604 z"
   id="path13" />
	<path
   fill-rule="evenodd"
   clip-rule="evenodd"
   fill="#fefefe"
   d="m 125.709,282.582 c 0,0 0.274,-0.823 1.318,-0.22 1.043,0.549 2.472,0.879 2.472,0.879 0,0 -0.056,1.428 -0.989,1.428 -0.879,0 -1.043,-1.207 -1.373,-1.317 -0.274,-0.11 -1.208,-0.44 -1.208,-0.275 z m 0.604,6.261 c -0.274,0.825 0.22,1.21 -0.219,1.483 -1.208,0.55 -1.758,0.385 -2.967,1.265 -0.769,0.054 -1.648,0.165 -2.197,0.054 -0.055,0.165 -0.494,0.715 -1.044,1.044 -0.769,1.922 -1.263,2.197 -0.055,2.472 l 2.747,0.495 -0.275,1.262 c -0.934,-0.273 -1.867,-0.438 -2.746,-0.877 -2.198,0.383 -0.66,5.766 -4.175,5.546 -1.099,-0.548 -3.297,-2.251 -2.857,-3.624 0.769,0.44 1.264,0.879 2.197,0.988 l 0.879,-0.056 c 0.549,-1.098 1.483,-1.757 0.439,-2.801 l -4.614,0.11 c -3.295,-3.406 4.01,-0.549 5.273,-1.538 0.604,-0.221 1.099,-2.746 1.538,-2.856 1.264,-0.386 3.9,-0.66 4.724,-1.264 0.165,-0.329 0.825,-1.155 -1.427,-1.647 -3.626,0.604 -9.119,2.692 -11.261,1.813 -2.747,-1.978 -1.648,-1.813 -2.142,-2.417 0.439,-0.935 1.922,0.549 3.625,0.658 3.186,-0.548 8.734,0.438 8.569,-1.371 -0.055,-0.277 -1.318,-0.826 -1.702,-1.21 -0.165,-0.164 1.099,-0.22 1.208,-1.044 0,-0.165 0.11,-0.55 0.11,-0.824 0,-0.164 -0.384,-0.768 0.274,-0.768 0.166,0.604 1.044,0.713 1.593,0.933 0.439,-0.549 0.66,-0.988 0.989,-1.098 0.164,0.384 0.658,0.988 1.428,2.033 1.208,0 1.977,-0.441 2.747,-0.606 l 0.22,-0.329 c -0.11,-0.22 -0.494,-0.658 -0.604,-1.042 -0.604,-0.11 -1.154,-0.165 -1.758,-0.22 -0.824,-0.277 0.055,-0.716 -0.495,-1.43 -0.659,-0.384 -1.978,0.165 -1.867,-0.494 2.855,-0.551 1.153,-1.813 1.702,-3.131 0.988,0.329 0.769,1.758 1.758,1.977 0.989,0.221 1.758,-2.361 3.186,-2.91 1.703,0.988 0.604,2.527 -0.329,3.075 -0.165,0 -0.44,0 -0.66,0.056 -0.604,0.273 -0.824,1.153 0.77,1.428 1.702,0.11 1.208,-0.604 2.307,-0.548 0.824,0.438 2.362,2.69 0.329,3.789 -0.329,0.054 -1.153,-0.111 -2.197,0.109 -0.604,0.221 -1.482,0.386 -2.417,0.55 -1.758,1.318 -4.449,1.043 -2.857,2.692 1.704,-0.221 1.594,-0.056 2.253,0.273 z m -9.283,-4.833 c -0.055,0.164 -0.439,-0.165 -0.549,-0.165 -0.715,0 -1.155,0.109 -1.484,0.933 -0.109,0.22 -0.494,1.209 -1.538,0.661 l -0.604,-0.661 c -0.384,-0.713 0.439,-0.658 0.769,-1.098 0.384,-0.551 0.274,-0.329 0.66,-1.099 l 0.878,-1.649 c 0.055,-0.768 1.429,0.387 1.704,0.111 l 0.494,-1.044 c 0.166,-0.329 0.66,1.044 0.879,0.879 0.385,0.989 -0.055,2.967 -0.713,3.076 z"
   id="path14" />
	<path
   fill-rule="evenodd"
   clip-rule="evenodd"
   fill="#fefefe"
   d="m 80.996,249.02 c 0.109,1.097 0,1.593 -0.22,1.978 -0.274,0.383 -0.714,1.317 -0.714,1.317 l -1.099,0.769 c 0,0 -1.043,-0.219 -1.428,0.111 -0.385,0.329 -1.813,0.822 -1.813,0.822 0,0 1.428,-1.483 2.087,-2.472 2.033,-0.932 2.033,-2.252 3.187,-2.525 z m 0.549,10.437 1.647,0.109 0.604,0.658 -0.165,1.374 -0.824,0.604 -1.208,-0.604 -0.439,-1.648 z m -3.846,12.578 c 0.275,0.22 0.713,1.1 0.77,1.978 -0.166,1.155 -0.111,1.594 -0.275,1.923 -0.109,0.384 -1.098,1.207 -1.592,1.153 -0.605,-0.11 -1.044,-0.44 -1.429,-1.373 -0.55,-0.66 -0.769,-0.715 -0.769,-0.715 0,0 2.362,0.989 3.295,-2.966 z m 0.22,-7.801 c 0,0 0.329,-0.329 1.153,0.221 0.495,0.329 0.659,0.273 0.659,0.273 0,0 0.713,0.331 0.494,0.716 -0.219,0.385 -0.659,0.548 -1.044,0.385 -0.439,-0.165 -0.77,0 -0.77,0 l -0.877,-0.55 -0.11,-0.715 z m 1.539,-0.603 0.604,-0.715 h 0.934 c 0,0 1.373,0.604 1.208,1.427 -0.219,0.44 -0.439,0.606 -0.439,0.606 l -1.538,-0.386 z m 8.294,0.548 c -1.374,1.703 -3.021,-0.109 -3.242,0.385 -0.384,0.936 -1.318,2.637 -2.361,2.967 -0.77,0.275 -4.669,1.594 -2.857,2.253 1.648,0.658 1.429,0.438 2.417,-0.826 l 1.538,1.374 c 0.385,1.813 -0.055,0.826 -1.043,1.045 -0.494,0.11 -1.538,0.055 -2.032,0.055 -1.483,0.056 -2.801,-1.759 -3.405,-1.265 -0.825,0.659 -2.967,1.32 -3.681,1.265 -0.658,-0.109 -2.417,-0.715 -1.044,-0.605 0.934,0.055 2.198,-0.439 2.967,-1.811 -0.11,-0.551 -0.549,-1.209 -1.099,-1.539 l 0.44,-0.329 c 0.768,0.109 1.428,1.153 2.417,0.988 1.318,-0.275 1.373,-2.307 1.043,-2.088 L 77.15,265.5 c -0.604,-0.056 -0.824,0.438 -1.922,0 -1.099,-1.595 -0.22,-2.637 1.922,-2.253 0.275,0.055 1.263,-0.551 1.374,-0.88 0.329,-0.769 2.033,-0.878 1.978,-1.648 -0.056,-0.604 0.33,-1.152 -0.44,-2.033 -0.824,-0.987 -1.483,-1.7 0.11,-1.152 1.483,0.988 2.856,0.77 4.174,0.988 0.385,0.055 1.264,-0.988 1.539,-1.263 0.824,-0.88 1.099,-0.659 0.989,0.109 0,0.988 -0.44,0.659 -0.11,1.539 1.374,0.44 2.033,-2.582 2.252,-2.196 0.275,0.329 0,1.316 -0.44,1.646 2.363,1.978 2.857,-0.383 3.461,-0.768 1.373,-0.823 1.318,0.22 1.318,0.055 0.495,1.758 -1.813,2.855 -5.768,2.69 -0.22,-0.054 -1.154,1.539 -1.648,1.43 0.384,0.494 0.549,0.768 0.989,1.153 0.384,0.33 0.604,0.659 0.824,1.262 z m -21.532,1.1 c -1.484,1.098 -2.583,2.143 -3.076,2.252 -0.385,0 -0.824,-0.055 -1.044,-0.384 0,-1.155 -0.055,-1.483 0.604,-2.583 0.275,0 2.197,-0.988 3.735,-2.087 0.878,-0.659 2.033,-2.309 3.186,-2.856 0.825,-0.438 1.759,-1.045 2.362,-1.483 1.483,-1.152 2.198,-2.253 2.582,-2.691 0.11,0.109 0.384,0.329 0.384,0.55 0.11,0.604 -0.439,2.36 -0.714,2.689 0.22,0.168 0.604,0.332 0.934,0.662 -0.275,0.219 -0.604,0.494 -0.879,0.768 -0.33,0.219 -0.604,0.438 -0.878,0.548 -0.11,0.056 -0.659,0 -1.099,0.222 -0.495,0.275 -1.098,0.823 -1.758,1.208 -0.66,0.438 -1.373,0.824 -2.032,1.264 -1.099,0.876 -1.65,1.479 -2.307,1.921 z"
   id="path15" />
	<path
   fill-rule="evenodd"
   clip-rule="evenodd"
   fill="#fefefe"
   d="m 60.341,237.539 c 0.715,0.274 1.647,0.989 1.868,1.648 0,0 -1.539,1.593 -2.308,2.251 -0.658,0.659 -2.087,1.155 -2.252,0.879 -0.384,-0.659 -0.549,-1.756 0.66,-3.075 0.439,-0.329 0.879,-0.549 1.318,-0.879 0.274,-0.221 0.495,-0.495 0.714,-0.824 z m -3.24,-2.472 c -0.329,0.055 -0.824,0.384 -0.989,0.604 -0.109,0.22 -0.219,0.825 0.165,1.868 0.439,0.989 0.879,1.318 1.264,1.264 0.329,-0.055 1.208,-0.494 1.648,-0.989 0.22,-0.109 0.275,-0.33 0.22,-0.715 -0.551,-0.768 -1.704,-1.813 -2.308,-2.032 z m -7.801,1.319 c -0.549,-0.221 -1.373,-0.881 -1.648,-1.648 1.429,-0.88 1.813,0.165 2.198,-0.056 1.043,-0.549 1.428,-0.549 1.538,-0.22 -0.604,0.275 -0.824,1.043 -1.043,1.373 -0.221,0.386 -0.77,0.606 -1.045,0.551 z m 20.544,7.743 c -0.165,0 -0.769,-0.109 -0.934,-0.329 -0.274,-0.22 -0.603,-0.769 -0.384,-1.044 0.329,-0.383 1.153,-0.327 1.537,-0.604 0.715,-0.494 0.935,-0.823 1.704,-1.481 0.219,0.273 0.384,0.768 0.439,1.152 0,0.219 -0.549,1.483 -0.823,1.703 -0.55,0.384 -1.265,0.603 -1.539,0.603 z M 61.55,233.254 c -0.22,-0.385 -0.714,-2.308 -0.329,-2.473 0.768,0.714 1.702,1.539 2.197,1.868 0.384,0.275 1.649,1.043 2.197,1.427 0.055,0.661 0.165,1.155 -0.714,1.265 -0.989,0.164 -2.856,-0.988 -3.351,-2.087 z m 3.9,8.624 c -0.329,-0.33 -0.495,-0.823 -1.429,-1.264 -1.099,-0.66 -2.636,1.264 -3.351,1.814 -1.263,1.206 -3.57,3.678 -3.735,5.381 0.878,-0.055 1.538,-0.714 3.076,-1.262 0.33,-0.11 1.264,-0.386 1.593,-0.661 -0.494,2.471 -8.624,5.22 -9.338,5.055 -0.165,-0.054 -0.66,-0.219 -0.879,-0.551 0.824,-2.087 2.801,-2.854 3.955,-5.491 0.22,-0.494 1.099,-0.771 1.044,-1.429 -1.264,-0.659 -3.406,-1.154 -5.054,-1.758 -3.516,-1.759 -6.811,-3.295 -9.119,-5.383 -0.055,-0.109 -0.769,-1.868 -0.438,-2.802 0.934,-0.33 3.076,2.748 4.559,3.899 1.758,1.374 3.735,2.032 5.658,3.133 0.604,0.383 1.373,0.494 2.087,0.494 0.989,0 2.581,-0.881 2.636,-1.704 -0.055,-0.22 -0.165,-0.494 -0.384,-0.658 -1.374,-0.825 -2.857,0.164 -4.12,-0.88 -0.55,-0.769 -0.22,-1.153 0.219,-1.482 0.604,0.11 1.429,0.056 2.142,-0.222 0.989,-0.494 1.429,-0.987 1.648,-1.317 -0.385,-0.494 -0.604,-1.044 -1.099,-1.483 -0.989,-0.823 -2.087,-1.483 -3.076,-1.647 -0.495,-0.823 -0.33,-2.691 0.165,-3.295 0.329,0.658 0.879,1.098 1.373,1.703 1.264,1.482 3.242,2.581 4.56,3.789 1.978,1.703 3.35,3.461 5.383,4.284 0.494,0.221 3.79,-2.088 4.34,-2.416 2.307,-1.317 2.911,-2.144 5.163,-3.792 1.209,2.143 0.66,3.022 -0.713,3.901 -0.714,0.386 -2.637,0.934 -4.23,1.703 -1.702,0.77 -3.186,1.813 -3.131,2.143 0.385,0.438 1.098,1.209 1.429,1.703 z"
   id="path16" />
	<path
   fill-rule="evenodd"
   clip-rule="evenodd"
   fill="#fefefe"
   d="m 150.482,291.81 c 0,-0.054 0,-0.109 0,-0.109 0,-0.056 0,-0.109 -0.109,-0.166 -0.275,-0.055 -0.825,0.386 -1.593,1.264 -0.439,0.385 -1.428,0.658 -2.967,0.824 -0.109,-0.057 -0.165,-0.11 -0.165,-0.166 0.055,-0.164 0.274,-0.438 0.66,-0.714 0.055,-0.054 0.384,-0.383 0.879,-0.986 0.384,-0.661 1.263,-1.539 2.636,-2.639 0.44,-0.384 0.604,-0.713 0.495,-0.933 -0.055,-0.165 -0.275,-0.439 -0.605,-0.771 -0.438,-0.493 -0.714,-0.712 -0.878,-0.768 -0.165,0 -0.824,0.658 -1.978,1.924 -0.275,0.218 -0.549,0.603 -0.824,1.044 l -0.494,0.604 c -1.813,2.416 -2.912,3.846 -3.406,4.229 -0.165,0.056 -0.221,0.056 -0.275,0.111 -0.219,0.438 -0.219,0.933 0,1.428 0.221,0.55 0.385,0.823 0.549,0.879 l 3.132,-0.935 c 0.109,0.056 0.165,0.111 0.165,0.221 -0.824,1.152 -1.758,1.868 -2.691,2.197 -0.66,0.109 -1.1,0.383 -1.264,0.823 v 0.109 c 0,0.056 0.165,0.274 0.604,0.716 0,0 0,0.055 0.055,0.055 0,0.274 0.11,0.384 0.275,0.494 0.055,0 0.11,0 0.165,0.054 0.055,0 0.221,0 0.495,0.056 0,0 0.604,-0.22 1.758,-0.714 0.055,0 0.11,0 0.165,-0.054 0.439,-0.112 0.823,-0.222 1.099,-0.332 l 0.549,-0.109 c 0.221,-0.109 0.604,-0.221 1.153,-0.274 0.66,-0.11 0.989,-0.385 1.043,-0.879 0.056,-0.054 0,-0.329 -0.109,-0.824 -0.055,-0.329 -0.11,-0.438 -0.219,-0.494 -0.165,0 -0.275,0.056 -0.385,0.165 -0.275,0.164 -0.604,0.273 -0.879,0.22 -0.165,0 -0.274,-0.056 -0.219,-0.22 1.538,-2.033 2.472,-3.186 2.746,-3.46 0.66,-0.715 0.989,-1.209 0.934,-1.428 -0.055,-0.111 -0.055,-0.111 -0.055,-0.165 -0.057,-0.112 -0.221,-0.221 -0.442,-0.277 z m -4.119,11.589 c 1.538,-0.712 2.307,-1.427 2.417,-2.142 0.055,-0.109 0,-0.219 -0.11,-0.438 -0.11,-0.165 -0.384,-0.274 -0.714,-0.221 -1.044,0.111 -1.978,0.385 -2.801,0.769 -0.769,0.439 -1.539,0.715 -2.253,0.936 -0.713,0.164 -1.153,0.329 -1.373,0.549 -0.055,0.055 -0.055,0.274 -0.11,0.659 0.11,0.386 0.22,0.66 0.384,0.88 0.33,0.438 0.604,0.713 0.714,0.768 0.219,0 0.769,-0.275 1.758,-0.878 l 0.494,-0.165 z m 10.272,2.472 c 2.307,0.332 4.01,0.771 5.054,1.374 0.055,0 0.11,0 0.165,-0.055 0.055,-0.055 0.11,-0.219 0.165,-0.493 0,-0.275 0,-0.604 0,-0.936 -0.055,-0.109 -0.165,-0.329 -0.274,-0.604 -0.331,-0.658 -0.605,-0.987 -0.934,-1.043 l -3.295,-0.275 -0.385,-0.056 c -0.274,-0.055 -0.384,-0.22 -0.33,-0.604 0.165,-0.823 0.275,-1.263 0.33,-1.374 0,-0.274 0.055,-0.549 0.221,-0.823 0.109,-0.549 0.384,-0.823 0.878,-0.878 0.44,-0.055 0.659,-0.109 0.824,-0.165 0.165,-0.166 0.22,-0.495 0.165,-1.154 -0.055,-1.042 -0.384,-1.647 -0.934,-1.703 l -2.801,0.385 c -1.813,0.164 -2.802,0.276 -2.912,0.33 -0.165,0 -0.33,0 -0.44,0.056 -0.165,0.056 -0.33,0.274 -0.384,0.659 -0.11,0.877 0.165,1.593 0.77,2.142 0.33,0.056 0.659,0.056 0.989,0.109 0.219,0 0.274,0.329 0.219,0.933 -0.109,0.606 -0.219,1.101 -0.495,1.374 -0.384,0.44 -1.153,0.714 -2.417,0.88 l -1.208,0.221 c -1.373,0.109 -1.977,0.493 -1.868,1.097 0,0.056 0,0.165 0.055,0.274 0.055,0.386 0.219,0.605 0.495,0.661 2.142,-0.386 3.68,-0.496 4.614,-0.386 1.096,-0.056 2.359,-0.056 3.733,0.054 z m -2.142,-14.17 c 0.165,0 0.329,0 0.494,0 0.054,0 0.109,0.056 0.109,0.165 -1.427,1.591 -2.526,2.636 -3.35,3.186 l -1.099,0.492 c -0.989,0.551 -1.482,0.88 -1.539,0.88 0,0.056 0.056,0.165 0.166,0.275 0,0 0.055,0 0.11,0.055 0.823,0.385 1.922,0.329 3.24,-0.109 0.055,0 0.11,0 0.22,-0.056 0.109,-0.054 0.274,-0.109 0.44,-0.219 0.165,-0.056 0.274,-0.056 0.274,-0.056 0.824,-1.428 1.374,-2.251 1.647,-2.416 0.055,-0.055 0.11,-0.11 0.166,-0.11 0.219,-0.165 0.384,-0.222 0.549,-0.222 0.384,0.057 1.483,0.88 3.405,2.528 l 1.813,1.428 c 0.22,0.275 0.495,0.387 0.824,0.331 0.11,-0.166 0.274,-0.605 0.384,-1.318 0,-0.221 0.056,-0.44 0.11,-0.659 0,-0.22 -0.11,-0.551 -0.33,-1.045 -0.055,-0.273 -1.263,-0.768 -3.515,-1.538 -0.055,0 -0.22,-0.056 -0.55,-0.221 -0.713,-0.164 -1.044,-0.383 -1.044,-0.548 0.056,-0.109 0.22,-0.438 0.66,-0.933 0,-0.057 0.329,-0.276 0.989,-0.605 0.055,-0.056 0.219,-0.165 0.438,-0.274 0.496,-0.22 0.934,-0.44 1.374,-0.604 0.22,-0.109 0.33,-0.219 0.384,-0.438 0.055,-0.331 -0.219,-0.716 -0.824,-1.099 -0.384,-0.221 -0.659,-0.44 -0.824,-0.605 -0.275,-0.273 -0.824,-0.329 -1.647,-0.164 -1.264,0.11 -2.033,0.275 -2.308,0.385 -0.549,-0.056 -1.208,0 -1.921,0.164 -0.111,-0.055 -0.166,-0.055 -0.221,-0.055 -0.165,-0.055 -0.219,0.055 -0.274,0.275 l 0.109,1.044 c 0,0.055 0,0.164 0.055,0.219 0,-0.055 0,0.056 -0.055,0.385 0.055,0.713 0.11,1.207 0.165,1.317 0.11,0.166 0.166,0.222 0.331,0.275 0.275,-0.055 0.659,-0.11 1.045,-0.11 z m 13.622,4.613 c -0.55,-0.109 -1.044,-0.109 -1.428,0.056 -0.111,0.054 -0.22,0.219 -0.33,0.494 0,0.054 0,0.165 0,0.274 -0.165,1.265 -0.219,2.471 -0.11,3.625 -0.055,0.494 0,2.033 0.22,4.504 0.33,0.66 0.878,1.43 1.648,2.307 0.055,0.109 0.165,0.165 0.329,0.165 0.33,-0.056 0.77,-0.549 1.319,-1.536 0.11,-0.386 0.275,-0.605 0.439,-0.826 0.055,-0.383 0.274,-0.877 0.604,-1.48 0.165,-0.497 0.33,-1.045 0.384,-1.539 0,-0.22 0.055,-0.439 0.11,-0.551 0.055,-0.11 0.055,-0.22 0.109,-0.329 0.165,-1.208 0.385,-2.088 0.715,-2.582 0.109,-0.329 0.165,-0.548 0.165,-0.822 0,-0.11 -0.11,-0.164 -0.22,-0.22 -0.109,0.056 -0.329,0.22 -0.714,0.494 -0.384,0.329 -0.824,1.207 -1.208,2.526 -0.055,0.109 -0.164,0.328 -0.329,0.604 -0.221,0.44 -0.385,0.77 -0.44,0.935 -0.055,0.329 -0.165,0.549 -0.165,0.604 -0.329,0.989 -0.77,1.483 -1.374,1.537 -0.109,0 -0.275,0 -0.384,-0.109 -0.22,-0.164 -0.33,-0.438 -0.385,-0.88 -0.055,-0.384 0.11,-1.646 0.439,-3.79 0.054,-0.659 0.44,-1.208 1.153,-1.536 0.44,-0.44 0.659,-0.88 0.659,-1.265 -0.165,-0.165 -0.493,-0.385 -1.098,-0.659 -0.053,-10e-4 -0.108,-10e-4 -0.108,-10e-4 z m 1.154,-5.603 c -0.11,-0.056 -0.219,-0.11 -0.275,-0.22 -0.33,-0.438 -0.604,-0.714 -0.878,-0.659 -0.55,0.056 -0.824,0.55 -0.77,1.482 0,0.056 0.11,0.495 0.33,1.374 0.165,0.494 0.329,0.768 0.549,0.823 0.33,-0.056 0.769,0.054 1.318,0.222 l 1.429,0.054 c 0.22,0 0.384,-0.165 0.494,-0.386 0.164,-0.274 0.22,-0.604 0.22,-0.878 0,-0.109 -0.11,-0.273 -0.22,-0.385 -0.659,-0.824 -1.208,-1.209 -1.593,-1.153 -0.11,0 -0.11,0 -0.165,-0.056 -0.11,-0.108 -0.275,-0.164 -0.439,-0.218 z m 7.855,14.336 c -0.22,-0.822 -0.11,-1.593 0.274,-2.196 l 0.165,-1.923 c -0.055,-0.219 -0.165,-0.384 -0.439,-0.439 -0.714,-0.22 -0.934,-0.549 -0.55,-0.989 0.055,-0.164 0.165,-0.275 0.274,-0.439 0.605,-0.822 0.989,-1.207 1.209,-1.263 2.197,0.385 3.57,0.769 4.01,1.153 v 0 c 0.329,0.273 0.548,0.494 0.659,0.604 l 0.44,1.044 c 0.219,0.275 0.878,0.385 2.032,0.33 0.274,0 0.714,-0.055 1.318,-0.055 0.055,-0.055 0.274,-0.11 0.604,-0.11 0.33,-0.054 0.604,-0.109 0.934,-0.165 0.165,-0.054 0.77,-0.219 1.923,-0.493 0.055,-0.055 0.109,-0.165 0.109,-0.274 -0.055,-0.112 -0.22,-0.276 -0.604,-0.551 -0.604,-0.274 -1.209,-0.438 -1.923,-0.55 -0.055,-0.054 -0.329,-0.108 -0.77,-0.273 -0.548,-0.109 -0.878,-0.165 -0.988,-0.165 -1.099,-0.164 -2.252,-0.548 -3.516,-1.153 -0.219,-0.056 -0.495,-0.221 -0.879,-0.439 -1.208,-0.658 -1.813,-1.043 -1.868,-1.319 0.056,-0.109 0.056,-0.219 0.11,-0.328 0.33,-1.485 0.604,-2.309 0.77,-2.473 0.329,-0.384 1.153,-0.658 2.581,-0.769 0,0 0.056,-0.054 0.111,-0.054 0.384,0 0.549,-0.276 0.549,-0.826 -0.056,-0.165 -0.11,-0.329 -0.22,-0.494 -0.329,-0.383 -0.55,-0.658 -0.714,-0.877 -0.11,-0.168 -0.494,-0.168 -1.208,-0.168 -0.056,0.056 -0.165,0.111 -0.33,0.223 -0.165,0 -0.385,0.055 -0.55,0.109 -0.055,0.055 -0.165,0.109 -0.274,0.165 -0.165,0.054 -0.33,0.165 -0.496,0.273 -0.109,0 -1.099,0.439 -2.965,1.209 -0.111,0 -0.22,0 -0.33,0.054 -0.549,0.276 -1.758,0.661 -3.791,1.154 -0.164,0 -0.274,0.22 -0.219,0.604 0,0.219 0.219,0.715 0.715,1.483 0,0 0.109,0 0.384,0 0.33,-0.165 0.605,-0.329 0.879,-0.494 0.274,-0.109 0.604,-0.274 1.043,-0.494 0.11,-0.056 0.659,-0.112 1.648,-0.222 0.22,0 0.33,0.109 0.384,0.387 0,0.109 -0.055,0.329 -0.109,0.714 0,0.273 -0.11,0.438 -0.275,0.494 h -0.109 c -0.934,-0.275 -1.593,-0.385 -1.868,-0.385 -0.165,0 -0.274,0.164 -0.384,0.438 -0.221,0.274 -0.33,0.606 -0.275,1.045 0,0.385 0.109,0.658 0.219,0.768 0,0 0.056,0.056 0.166,0.111 0.329,-0.111 0.659,-0.111 1.099,0 0.11,0.054 0.165,0.164 0.165,0.273 0,0.165 -0.438,0.66 -1.318,1.539 -1.264,1.099 -2.253,1.703 -2.857,1.757 -0.109,0 -0.165,0.111 -0.165,0.33 0,0.055 0.055,0.11 0.11,0.11 0.22,0.219 0.604,0.274 1.264,0.219 1.043,0.056 1.648,0.22 1.813,0.494 0.11,1.374 0.165,2.254 0.055,2.583 -0.055,0.329 -0.549,1.098 -1.483,2.197 -0.219,0.219 -0.494,0.549 -0.823,1.042 0,0.109 0.11,0.165 0.384,0.109 0.384,0 1.154,-0.273 2.307,-0.768 0.385,-0.219 0.714,-0.494 0.989,-0.823 0.439,-0.439 0.604,-0.768 0.604,-1.044 z m 0.384,-18.566 c -0.275,-0.383 -0.439,-0.604 -0.549,-0.658 -0.166,-0.109 -0.275,-0.165 -0.331,-0.109 -0.165,0 -0.438,0.164 -0.823,0.549 -0.111,0.109 -0.111,0.439 -0.056,1.042 0.056,0.936 0.221,1.539 0.385,1.759 0.056,0.109 0.22,0.219 0.494,0.328 1.153,0.497 1.758,0.716 1.923,0.716 0.329,0 0.495,-0.329 0.495,-0.825 -0.055,-0.164 -0.166,-0.548 -0.439,-1.206 -0.22,-0.331 -0.604,-0.881 -1.099,-1.596 z m 2.032,16.864 0.44,2.692 c 0.165,1.923 0.22,3.185 0.22,3.734 0,0.386 0.384,0.551 1.098,0.495 0.715,-0.054 1.044,-0.331 0.989,-0.825 -0.109,-0.658 -0.219,-1.262 -0.385,-1.759 l -0.165,-4.173 0.055,-2.472 c -0.055,-0.55 -0.055,-1.043 -0.055,-1.539 -0.055,-0.11 -0.165,-0.22 -0.494,-0.329 -0.604,0 -1.318,0 -2.087,0.054 -0.221,0.056 -0.33,0.165 -0.33,0.33 0,0.055 0.055,0.22 0.166,0.441 0.274,1.152 0.439,2.086 0.494,2.801 z m 12.36,-2.966 c 0.109,0.384 0.604,1.043 1.483,2.032 0.055,0.055 0.11,0.11 0.274,0.11 l 0.769,-0.716 c 0,0 0,-0.055 0.11,-0.11 0.384,-0.273 1.757,-0.877 4.01,-1.865 0.439,-0.386 1.538,-0.989 3.351,-1.813 0.769,-0.331 1.592,-0.551 2.417,-0.606 0.275,-0.054 0.55,-0.109 0.824,-0.109 0.219,-0.055 0.274,-0.273 0.219,-0.604 -0.219,-0.549 -0.549,-0.987 -0.934,-1.429 -0.384,-0.274 -0.879,-0.384 -1.482,-0.165 0.055,-0.054 -0.056,0 -0.275,0.11 -0.055,0 -0.109,0.055 -0.221,0.109 l -3.076,1.374 -0.384,0.219 c -0.109,0.056 -0.66,0.33 -1.758,0.88 -0.055,0 -0.055,0.056 -0.055,0.056 -0.384,0.22 -0.823,0.438 -1.208,0.659 -0.055,0 -0.055,0.054 -0.055,0.054 -0.055,0.056 -0.219,0.11 -0.494,0.22 -0.22,0.109 -0.879,0.438 -1.922,0.879 -0.44,0.166 -0.825,0.331 -1.209,0.495 -0.055,0 -0.055,0 -0.11,-0.055 -0.109,0.055 -0.165,0.11 -0.274,0.164 0,0.001 0,0.057 0,0.111 z m 4.23,-5.603 c 0.109,0.275 0.22,0.549 0.384,0.823 0.275,0.33 0.494,0.441 0.769,0.441 0.055,-0.056 0.275,-0.274 0.659,-0.661 0.055,0 0.11,-0.055 0.165,-0.164 0.275,-0.275 1.429,-0.987 3.295,-2.088 0,0 0,0 0.055,0 l 0.111,-0.056 c 0,0 0.22,-0.164 0.714,-0.438 1.098,-0.713 1.868,-1.153 2.362,-1.263 0.549,-0.165 0.989,-0.165 1.428,0.054 0.714,0.386 1.153,1.813 1.373,4.342 -0.109,2.031 -0.329,3.349 -0.604,3.952 -0.33,0.332 -0.934,0.606 -1.813,0.771 -2.087,0.385 -3.296,0.604 -3.516,0.659 0.11,0.494 1.263,1.045 3.295,1.593 0.549,0 1.099,0 1.813,0.056 0.33,0 0.713,0 1.208,0 0.219,0 0.494,0 0.713,0.055 l 0.66,-1.978 c 0,-0.164 0.055,-0.275 0.055,-0.329 0.438,-1.649 0.659,-2.968 0.714,-3.9 0,-0.878 0.055,-1.483 0.165,-1.813 -0.165,-1.208 -0.219,-2.471 -0.165,-3.79 -0.055,-0.22 -0.055,-0.385 0.055,-0.494 0.109,-0.439 0.164,-0.714 0.164,-0.769 -0.055,-0.109 -0.109,-0.164 -0.164,-0.164 -0.165,-0.167 -0.66,-0.276 -1.484,-0.276 0.055,-0.056 0,0 -0.219,0 -0.384,0.054 -0.604,0.109 -0.659,0.109 -0.221,0.056 -0.385,0.056 -0.549,0.056 -0.056,0 -0.11,0 -0.165,0 -2.417,0.439 -4.944,1.263 -7.582,2.473 -0.274,0.055 -0.548,0.164 -0.823,0.275 -0.055,0.054 -0.11,0.054 -0.275,0 0,-0.056 -0.055,-0.111 -0.11,-0.165 0,-0.385 0,-0.605 0,-0.771 -0.055,-0.659 0.275,-1.262 0.934,-1.646 0.11,-0.109 0.219,-0.222 0.33,-0.331 0.11,-0.056 0.22,-0.165 0.275,-0.274 0.109,-0.055 0.274,-0.11 0.438,-0.275 1.978,-1.206 3.131,-1.977 3.405,-2.197 0.221,-0.328 0.275,-0.821 0.111,-1.428 -0.055,-0.274 -0.166,-0.494 -0.275,-0.714 l -0.219,-0.219 c -0.11,-0.056 -0.275,-0.056 -0.494,-0.056 -0.33,0.22 -0.824,0.55 -1.538,0.988 l -0.934,0.606 c -0.329,0.108 -1.044,0.438 -2.142,1.042 -0.055,0 -0.165,0 -0.22,0 -0.109,-0.384 -0.055,-1.098 0.165,-2.143 -0.055,-0.274 -0.384,-0.549 -0.989,-0.714 -0.329,-0.109 -0.878,-0.163 -1.538,-0.274 -0.22,0.056 -0.385,0 -0.495,-0.054 -0.274,0.165 -0.384,0.384 -0.384,0.768 l 0.439,2.252 c 0.055,0.768 0.22,1.648 0.44,2.801 l 0.549,4.891 c 0.003,0.107 0.057,0.272 0.113,0.437 z m 21.423,-5.823 c -0.165,-0.383 -0.33,-0.768 -0.494,-1.152 -0.165,-0.274 -0.33,-0.387 -0.495,-0.33 -0.056,0.056 -0.22,0.275 -0.494,0.659 -0.221,0.44 -0.33,0.77 -0.33,0.988 -0.165,1.1 -0.165,1.759 -0.055,2.032 0.055,0.109 0.221,0.165 0.44,0.221 0.329,0.109 0.77,0 1.263,-0.221 0.165,-0.109 0.384,-0.164 0.605,-0.22 0.165,-0.109 0.274,-0.219 0.384,-0.384 0.055,-0.22 -0.11,-0.604 -0.439,-1.155 -0.221,-0.219 -0.331,-0.383 -0.385,-0.438 z m -3.625,-3.569 c 0.604,-0.331 1.263,-1.154 2.087,-2.528 0,-0.22 0.109,-0.385 0.219,-0.494 0.219,-0.109 0.549,-0.056 0.879,0.109 l 0.549,0.385 c 0.055,0 0.055,0.055 0.11,0.055 0.385,0.055 0.715,0.055 1.043,-0.11 0.221,-0.109 0.44,-0.329 0.604,-0.658 0.165,-0.219 0.22,-0.384 0.11,-0.549 -0.714,-0.55 -1.043,-0.935 -0.934,-1.153 0,-0.056 0.056,-0.221 0.11,-0.33 0.165,-0.604 0.495,-1.265 0.878,-2.088 0.22,-0.438 0.22,-0.824 0.11,-1.099 -0.22,-0.439 -0.439,-0.549 -0.713,-0.439 -0.055,0.055 -0.879,1.265 -2.417,3.626 0.055,0 0.055,0 -0.11,0.109 l -0.329,0.384 c -0.109,0.056 -0.165,0.056 -0.219,-0.054 -0.056,-0.056 0,-0.274 0.055,-0.55 0,0 0.055,-0.054 0.055,-0.109 0.164,-0.549 0.329,-1.045 0.549,-1.594 0,0 0.055,0 0.055,-0.054 0.275,-0.275 0.33,-0.494 0.221,-0.659 -0.056,-0.22 -0.44,-0.329 -1.1,-0.441 l -0.329,-0.109 c -0.22,-0.055 -0.385,0 -0.549,0.056 -0.055,0 -0.111,0.054 -0.166,0.166 -0.165,0.109 -0.165,0.385 -0.165,0.823 -0.274,2.197 -0.494,3.79 -0.714,4.669 -0.769,1.647 -1.042,2.581 -0.878,2.857 0,0.054 0.274,0 0.658,-0.165 0.11,-10e-4 0.165,-0.056 0.331,-0.056 z m 8.678,6.372 1.868,3.295 c 0,-0.056 0.055,0.054 0.165,0.219 0.329,0.551 0.604,0.935 0.714,1.153 0.384,0.494 0.768,0.659 1.208,0.44 0.055,-0.056 0.22,-0.22 0.439,-0.55 0.385,-0.658 1.318,-1.428 2.747,-2.307 0.274,-0.164 1.153,-0.66 2.692,-1.483 0.274,-0.164 0.33,-0.385 0.22,-0.658 0,0 -0.33,-0.495 -0.934,-1.319 l 0.219,-2.088 c 0.11,-0.548 0.165,-0.877 0.165,-1.045 -0.109,-0.273 -0.713,-0.383 -1.702,-0.329 -1.318,0.165 -2.527,0.716 -3.625,1.703 -0.439,0.385 -0.769,0.604 -0.879,0.659 -0.713,0.606 -1.153,0.88 -1.208,0.936 -0.219,0.109 -0.384,0.054 -0.494,-0.165 0,-0.056 0,-0.164 0,-0.275 0,-0.054 0.219,-0.273 0.659,-0.66 0.769,-0.768 1.429,-1.317 1.977,-1.646 1.043,-0.604 1.483,-1.099 1.374,-1.537 0,-0.056 0,-0.44 0.055,-1.265 0,0.055 0,-0.056 -0.055,-0.33 0,-0.549 0.109,-1.097 0.33,-1.538 0.109,-0.274 0.384,-0.438 0.769,-0.548 2.527,-1.265 3.68,-2.089 3.516,-2.472 -0.55,-0.44 -1.264,-0.826 -2.142,-1.21 -0.055,-0.055 -0.11,-0.11 -0.219,-0.164 -1.099,-0.385 -1.758,-0.604 -1.978,-0.604 -1.263,0 -2.472,0.385 -3.571,1.263 -1.154,0.66 -1.813,1.099 -2.088,1.319 -0.054,0 -0.165,-0.056 -0.274,-0.056 l -0.439,-0.438 c -1.209,-0.109 -1.978,-0.109 -2.308,0.055 -0.385,0.165 -0.494,0.384 -0.385,0.658 0.11,0.164 0.22,0.275 0.439,0.385 l 0.165,0.221 c 0.275,0.274 0.604,0.55 0.934,0.823 0.055,0.109 0,0.221 -0.165,0.439 -0.22,0.164 -0.385,0.274 -0.494,0.439 -0.165,0.165 -0.331,0.275 -0.495,0.44 l -0.055,0.055 c 0,0 -0.109,0.165 -0.33,0.384 -0.219,0.22 -0.438,0.439 -0.659,0.658 -0.22,0.165 -0.33,0.33 -0.384,0.44 -0.11,0.109 -0.219,0.274 -0.329,0.44 -0.11,0.055 -0.221,0.164 -0.33,0.275 -0.33,0.273 -0.549,0.438 -0.604,0.603 0,0.056 0.055,0.274 0.219,0.604 0,0 0.165,0.056 0.494,0.165 l 2.142,-1.592 c 0.44,-0.386 0.77,-0.605 1.044,-0.771 0.275,-0.274 0.549,-0.438 0.824,-0.658 0.055,-0.055 0.11,-0.109 0.221,-0.219 0.165,-0.109 0.768,-0.881 1.921,-2.253 0.11,-0.165 0.275,-0.274 0.385,-0.44 0,0 0.055,-0.055 0.165,-0.11 0.165,-0.109 0.384,-0.274 0.604,-0.494 1.428,-1.098 2.582,-1.537 3.46,-1.373 0.438,0.057 0.714,0.275 0.824,0.551 0.054,0.055 0.054,0.329 0,0.713 -0.33,0.769 -0.934,1.374 -1.868,1.868 -1.758,0.274 -2.912,0.604 -3.296,0.933 -0.33,0.167 -0.934,0.716 -1.867,1.648 -0.604,0.496 -1.099,0.99 -1.539,1.319 -0.494,0.274 -0.659,0.604 -0.549,0.878 0.549,1.154 0.824,1.868 0.934,2.142 z m 3.955,2.087 c -0.219,0.109 -0.384,0.109 -0.549,-0.056 l -0.494,-0.934 c 0,-0.221 0.219,-0.715 0.77,-1.539 0.438,-0.604 0.988,-1.098 1.702,-1.482 0.11,-0.055 0.275,-0.055 0.386,0 0.219,0 0.384,0.165 0.494,0.385 0.164,0.329 0.22,0.659 0.109,1.042 -0.274,0.88 -0.878,1.595 -1.702,2.033 z m -1.978,-9.23 c 0.33,-0.164 0.55,-0.109 0.77,0.221 0.11,0.273 0.11,0.66 -0.055,1.153 -0.219,0.55 -0.44,0.934 -0.77,1.263 -0.439,0.496 -0.715,0.771 -0.824,0.826 -0.22,0.109 -0.439,0.054 -0.548,-0.221 -0.056,-0.055 -0.11,-0.385 -0.165,-0.88 -0.056,-0.22 0.109,-0.548 0.439,-1.042 0.494,-0.77 0.88,-1.209 1.153,-1.32 z m -1.153,-12.743 -1.043,-0.164 c -0.11,0.055 -0.274,0.055 -0.385,0.11 0,0 -0.055,0.274 -0.219,0.713 0,0.715 -0.11,1.594 -0.439,2.748 -0.055,0.384 -0.109,0.713 -0.165,1.042 -0.055,0.11 -0.109,0.275 -0.109,0.44 0,0.109 -0.166,0.659 -0.55,1.702 -0.219,0.493 -0.329,0.769 -0.274,0.88 0.055,0.11 0.219,0.164 0.384,0.055 1.043,-1.1 1.593,-1.647 1.648,-1.703 h 0.055 c 0.055,0 0.165,0.056 0.274,0.165 0.11,0.109 0.165,0.22 0.33,0.329 0.33,0.385 0.604,0.604 0.824,0.604 0.55,0.055 1.043,-0.055 1.483,-0.219 0.056,-0.056 0.165,-0.165 0.22,-0.275 0.055,-0.219 0.055,-0.438 -0.055,-0.657 l -0.769,-0.936 c 0,-0.056 0.055,-0.22 0.22,-0.438 0.165,-0.165 0.275,-0.33 0.33,-0.385 0.055,-0.329 0.494,-0.825 1.154,-1.539 0.219,-0.219 0.274,-0.438 0.219,-0.713 -0.109,-0.164 -0.329,-0.275 -0.66,-0.439 -0.274,-0.109 -0.548,-0.109 -0.822,0 -0.221,0.11 -0.44,0.385 -0.66,0.714 -0.165,0.109 -0.66,0.768 -1.483,2.087 -0.055,0 -0.11,0 -0.165,-0.109 -0.055,0 0.165,-0.659 0.549,-1.922 0.055,-0.165 0.055,-0.275 0.055,-0.44 0.055,-0.165 0.109,-0.219 0.055,-0.219 0.055,-0.056 0.11,-0.11 0.165,-0.165 0,-0.055 0,-0.111 0.055,-0.221 0,-0.494 0,-0.823 -0.055,-0.879 -0.055,-0.056 -0.112,-0.111 -0.167,-0.166 z"
   id="path17" />
	<path
   fill-rule="evenodd"
   clip-rule="evenodd"
   fill="#fefefe"
   d="m 241.722,282.911 c -0.55,1.319 -0.77,2.087 -0.659,2.143 0.165,0.054 0.878,0.109 2.087,0.165 0,0 0.055,0 0.109,-0.056 0.331,-0.274 0.989,-3.239 1.978,-9.009 0,-0.054 0.055,-0.164 0.055,-0.273 0,-0.165 0,-0.329 -0.11,-0.494 -0.165,-0.165 -0.33,-0.165 -0.549,0.056 -0.44,0.273 -0.715,0.877 -0.934,1.646 -0.055,0.109 -0.109,0.166 -0.165,0.221 -0.111,0.109 -0.33,0.055 -0.66,-0.221 -0.934,-1.153 -1.429,-1.867 -1.373,-2.144 0.055,-0.109 0.109,-0.219 0.165,-0.384 0.274,-1.097 0.384,-1.759 0.33,-1.867 -0.056,-0.056 -0.11,-0.165 -0.165,-0.274 l -0.769,-0.494 c -0.11,-0.056 -0.275,-0.056 -0.494,0.109 0,0 -0.221,0.274 -0.604,0.768 -0.11,0.056 -0.274,0 -0.549,-0.329 -0.934,-1.151 -1.319,-2.031 -1.155,-2.525 0.221,-1.1 0.165,-1.868 -0.109,-2.197 -0.329,-0.385 -0.659,-0.438 -0.934,-0.165 -0.494,0.33 -1.373,1.704 -2.801,4.011 -0.878,1.042 -1.374,1.593 -1.319,1.757 1.154,0.605 1.978,0.935 2.527,0.935 0.11,0.054 0.165,0 0.275,-0.056 0.055,-0.055 0.219,-0.273 0.55,-0.768 0.055,-0.056 0.165,-0.111 0.274,-0.056 0.165,0.109 0.604,0.659 1.428,1.646 0.219,0.275 0.165,0.66 -0.22,1.154 -0.494,0.714 -0.934,1.209 -1.317,1.539 -0.165,0.164 -0.22,0.329 -0.056,0.548 0.056,0.11 0.384,0.22 0.934,0.494 0.33,0.22 0.713,0.439 1.153,0.661 0.219,0.165 0.384,0.165 0.604,0 0.055,0 0.055,-0.056 0.109,-0.11 0.221,-0.88 0.44,-1.429 0.715,-1.593 0.109,-0.109 0.329,-0.056 0.549,0.164 1.153,1.374 1.703,2.307 1.703,2.801 l -0.11,0.549 c -0.218,0.549 -0.328,1.099 -0.493,1.648 z m 7.416,-5.713 -2.856,4.121 c -0.165,0.22 -0.165,0.384 -0.055,0.549 0.055,0.056 0.44,0.274 1.098,0.55 0.165,0.109 0.331,0.054 0.496,-0.056 0.055,-0.056 0.109,-0.109 0.109,-0.165 0.549,-1.209 2.252,-3.516 5.109,-6.92 0.494,-0.771 1.153,-1.318 2.032,-1.648 l 4.339,-2.748 c 0.274,-0.273 0.274,-0.549 0,-0.933 -0.219,-0.22 -0.439,-0.329 -0.715,-0.385 -0.274,-0.109 -0.658,-0.22 -1.263,-0.329 0.055,0.056 -0.055,0.056 -0.219,-0.056 l -0.55,-0.275 c -0.165,0 -0.275,0.055 -0.439,0.222 -1.483,1.646 -2.691,2.854 -3.681,3.678 -0.438,0.387 -0.823,0.387 -1.153,0.056 -0.109,-0.22 -0.219,-0.385 -0.329,-0.604 -0.22,-0.329 -0.11,-0.714 0.219,-1.152 0.22,-0.276 0.495,-0.606 0.77,-0.88 0.384,-0.438 0.549,-0.823 0.604,-1.153 0,-0.166 -0.055,-0.386 -0.219,-0.604 -0.439,-0.494 -0.824,-0.549 -1.318,-0.164 -0.715,0.548 -1.318,1.208 -1.868,1.922 -0.274,-0.221 -0.604,-0.494 -0.878,-0.933 -0.11,-0.111 -0.11,-0.274 0,-0.441 0.33,-0.494 1.099,-0.878 2.361,-1.207 0.221,-0.056 0.275,-0.165 0.331,-0.275 -0.055,-0.604 -0.879,-2.36 -2.527,-5.164 -0.549,-0.823 -0.989,-1.813 -1.318,-2.91 -0.056,-0.056 -0.056,-0.109 -0.056,-0.109 -2.142,0.548 -3.79,1.648 -4.943,3.239 -0.659,0.495 -1.758,2.252 -3.351,5.329 -0.165,0.22 -0.165,0.494 0,0.714 0.275,0.274 1.758,1.373 4.395,3.296 0.055,0 0.604,0.274 1.758,0.769 0.275,0.22 0.605,0.22 0.824,0.056 0.385,-0.988 0.713,-1.538 0.879,-1.595 l 0.11,0.057 c 0.274,0.056 0.549,0.221 0.713,0.44 0.22,0.273 0.166,0.657 -0.165,1.207 l -1.428,2.416 c -0.055,0.058 0,0.167 0.165,0.386 0.165,0.165 0.33,0.385 0.605,0.494 0.384,0.11 0.659,0.164 0.713,0.055 0,0 0,-0.055 0.055,-0.055 0.714,-0.989 1.264,-1.648 1.648,-1.978 0.22,-0.109 0.494,0 0.769,0.275 0.274,0.328 0.274,0.713 0.11,1.208 -0.11,0.165 -0.33,0.714 -0.77,1.593 -0.057,-0.003 -0.111,0.051 -0.111,0.107 z m -6.648,-8.406 -0.768,-0.933 c -0.33,-0.384 -0.44,-0.877 -0.275,-1.318 0,-0.165 0.275,-0.494 0.715,-1.042 0.055,-0.111 0.274,0.054 0.659,0.438 0.274,0.329 0.33,0.658 0.219,0.877 -0.219,0.441 -0.384,0.716 -0.494,0.991 -0.056,0.109 0,0.273 0.11,0.438 0.329,0.383 0.713,0.494 1.153,0.383 0.219,-0.109 0.494,-0.218 0.768,-0.327 -0.055,-0.056 0,0 0.166,0.109 0.33,0.273 0.549,0.438 0.658,0.548 0.221,0.332 0.221,0.661 -0.164,1.044 -0.165,0.111 -0.275,0.275 -0.439,0.494 -0.055,0.056 -0.33,-0.054 -0.77,-0.438 -0.493,-0.437 -0.988,-0.822 -1.538,-1.264 z m 2.033,-4.228 c -0.055,0.055 -0.11,0.055 -0.219,-0.056 -0.22,-0.219 -0.439,-0.713 -0.769,-1.427 0.055,-0.165 0.22,-0.386 0.548,-0.66 0.385,-0.273 0.77,-0.385 1.099,-0.273 0.44,0.109 1.373,1.318 2.856,3.461 -0.11,-0.109 -0.165,-0.221 -0.219,-0.385 0.109,0.275 0.219,0.549 0.384,0.823 -0.165,0.329 -0.384,0.658 -0.604,0.989 -0.494,0.439 -0.823,0.494 -0.989,0.275 l -0.549,-0.716 c -0.055,-0.164 0.055,-0.714 0.22,-1.646 0,-0.222 -0.055,-0.495 -0.275,-0.716 -0.274,-0.329 -0.495,-0.384 -0.769,-0.22 z m 11.646,-0.879 c 0.274,0.22 0.879,0 1.758,-0.604 0.494,-0.331 0.824,-0.551 0.933,-0.715 0.331,-0.384 0.331,-0.659 0.056,-0.934 0,0 -0.056,0 -0.11,-0.055 -0.768,-0.329 -1.482,-0.935 -2.252,-1.813 -0.109,-0.109 -0.274,-0.055 -0.438,0.11 -0.331,0.438 -0.55,1.154 -0.55,2.196 0.055,0.768 0.275,1.374 0.605,1.759 v 0.056 z m 6.976,-3.076 c -1.043,2.528 -1.593,3.846 -1.539,3.955 0.11,0.22 0.66,0.386 1.648,0.551 0.274,-1.21 1.428,-3.517 3.406,-6.978 l 0.055,-0.055 c 0.11,-0.109 0.274,-0.109 0.495,0.109 l 1.922,1.594 c 0.33,0.494 0.605,0.933 0.879,1.318 0,0.221 0,0.438 0,0.659 -0.329,0.438 -0.604,0.877 -0.879,1.374 -0.055,0 -0.055,0.055 -0.11,0.109 -0.713,0.604 -1.428,1.097 -2.032,1.481 0,0.109 0.055,0.166 0.109,0.222 0.331,0.274 0.934,0.22 1.813,-0.166 1.757,-0.658 3.24,-1.482 4.394,-2.472 h 0.056 c 0.11,-0.164 0.11,-0.329 0.11,-0.494 -0.275,-0.769 -1.153,-2.032 -2.747,-3.735 -1.704,-1.593 -2.472,-2.472 -2.417,-2.637 -0.055,-0.164 0.275,-0.604 0.878,-1.374 0,-0.164 0.605,-0.768 1.758,-1.868 0.934,-0.604 1.429,-0.933 1.483,-0.986 0.165,-0.22 0.11,-0.494 -0.164,-0.771 -0.111,-0.056 -0.331,-0.165 -0.715,-0.33 -0.219,-0.164 -0.44,-0.273 -0.659,-0.384 -0.439,-0.274 -0.824,-0.33 -1.208,-0.165 -0.879,0.714 -2.032,2.197 -3.405,4.449 -0.11,0.164 -0.331,0.164 -0.604,0.055 -0.165,-0.164 -0.385,-0.329 -0.549,-0.438 0.055,-0.329 0.22,-0.659 0.329,-1.043 0.165,-0.275 0.22,-0.551 0.275,-0.935 0,-0.549 0.055,-1.098 0.11,-1.648 0.989,-1.152 1.868,-2.361 2.637,-3.626 l 0.275,-0.494 c 0.109,-0.165 0.109,-0.384 -0.055,-0.548 -0.66,-0.55 -2.637,-0.274 -5.933,0.823 -0.055,0 -0.11,0 -0.11,0 -0.219,0.164 -0.989,0.824 -2.307,1.978 -0.055,0.109 -0.165,0.109 -0.275,0.054 0,-0.054 -0.109,-0.769 -0.33,-2.196 -0.165,-0.823 -0.219,-1.373 -0.165,-1.537 0.11,-0.77 0.11,-1.21 0,-1.264 -1.318,-0.11 -2.252,0 -2.747,0.438 l -0.055,0.056 c -0.11,0.165 -0.055,0.604 0.165,1.374 0.934,2.69 1.483,4.503 1.538,5.382 -0.055,0.495 -0.274,1.374 -0.714,2.692 -0.33,0.933 -0.713,2.362 -1.264,4.34 -0.329,0.548 -0.439,0.877 -0.219,1.042 l 0.055,0.11 c 0.219,0.11 0.384,0.166 0.659,0.222 0.165,-0.056 0.33,-0.111 0.384,-0.168 0.329,-1.097 0.77,-1.92 1.318,-2.58 0.715,-1.813 1.265,-3.131 1.704,-3.955 0.274,-0.879 0.989,-2.362 2.197,-4.449 0,0 0,-0.055 0.055,-0.11 0.11,-0.109 0.44,-0.329 0.989,-0.604 0.44,-0.164 0.77,-0.109 1.043,0.109 0.385,0.275 0.604,0.714 0.66,1.317 -0.11,0.716 -0.165,1.154 -0.275,1.319 -1.813,0.935 -2.801,1.538 -2.966,1.758 -0.495,0.604 -1.374,2.746 -2.747,6.592 -0.055,0.055 -0.055,0.109 -0.055,0.164 -0.055,0.165 -0.055,0.329 0.11,0.438 0.439,0.387 1.099,0.497 1.923,0.332 0.165,-0.055 0.329,-0.164 0.438,-0.275 0.11,-0.11 0.221,-0.715 0.221,-1.813 0.055,-0.219 0.33,-0.88 0.769,-1.922 0,-0.22 0,-0.551 -0.055,-1.045 -0.165,-0.549 -0.109,-1.043 0.22,-1.483 0.109,-0.164 0.33,-0.164 0.549,0.055 0.11,0.057 0.219,0.44 0.384,1.1 0.056,0.658 -0.109,1.209 -0.494,1.648 -0.109,0.273 -0.055,0.493 0.056,0.603 l 1.373,0.385 c 0.11,0.109 0.11,0.33 0,0.66 -0.549,0.934 -1.099,2.144 -1.648,3.681 z m -9.228,-7.908 c -0.878,0.109 -1.374,0.219 -1.483,0.383 -0.22,0.275 -0.275,0.55 -0.275,0.879 0.11,0.494 0.715,1.099 1.868,1.703 0.219,0.165 0.603,0 1.153,-0.493 0.494,-0.606 0.878,-0.991 1.099,-1.155 0.439,-0.549 0.494,-0.987 0.109,-1.263 -0.274,-0.221 -1.098,-0.276 -2.471,-0.054 z m 0.274,-3.902 c -0.219,0.439 -0.384,0.934 -0.495,1.427 -0.11,0.221 -0.11,0.387 0.055,0.497 0.385,0.329 0.934,0.384 1.703,0.165 0.66,-0.056 1.154,-0.275 1.428,-0.662 0.056,-0.109 0.11,-0.219 0.056,-0.438 -0.33,-0.494 -0.714,-1.317 -1.099,-2.472 -0.165,-0.22 -0.33,-0.385 -0.495,-0.603 -0.055,-0.111 -0.165,-0.111 -0.274,0 -0.055,0.109 -0.385,0.768 -0.879,1.922 0,0.055 -0.054,0.11 0,0.164 z m 20.929,-5.383 c 4.45,2.472 6.812,3.736 7.031,3.791 0.11,0.055 0.275,-0.055 0.386,-0.275 0.109,-0.164 0.165,-0.438 0.165,-0.659 0,-0.274 -1.044,-1.044 -3.076,-2.198 -2.308,-1.371 -3.571,-2.195 -3.791,-2.36 -0.824,-0.44 -1.153,-0.77 -1.043,-0.988 0,-0.055 0.055,-0.11 0.165,-0.11 l 1.923,-1.428 c 0.109,-0.221 0.165,-0.439 0.109,-0.604 -0.054,-0.221 -0.603,-0.551 -1.592,-0.991 -0.221,-0.164 0,-0.604 0.659,-1.371 0.274,-0.386 -0.165,-0.771 -1.264,-1.209 0.055,0 -0.055,-0.056 -0.329,-0.165 -0.275,-0.165 -0.55,-0.274 -0.715,-0.385 -0.219,0 -0.329,0 -0.384,0.11 -0.111,0.165 0.165,0.878 0.823,2.252 0,0.055 0.055,0.109 0,0.273 -0.11,0.221 -0.659,0.056 -1.593,-0.438 -0.219,-0.164 -0.659,-0.88 -1.263,-2.251 -0.055,-0.056 -0.055,-0.165 -0.111,-0.275 -0.11,-0.77 -0.439,-1.099 -0.988,-0.935 -0.44,0.165 -0.77,0.494 -1.1,1.045 -0.439,0.769 -0.713,1.978 -0.823,3.624 0.055,-0.055 0,0.055 -0.055,0.33 l -0.221,0.659 c 0,0.165 0.385,0.439 1.153,0.933 z m -3.625,-4.503 c -0.934,-0.604 -1.484,-1.1 -1.758,-1.594 -0.385,-0.55 -0.494,-0.988 -0.275,-1.374 0.055,-0.165 0.22,-0.219 0.384,-0.109 1.373,1.318 2.252,2.032 2.637,2.087 0.219,0.055 0.549,0.11 0.879,0.164 0.274,0 0.549,0.111 0.769,0.222 0.33,0.22 0.495,0.439 0.385,0.714 -0.275,0.438 -0.495,0.713 -0.604,0.823 -0.22,0.274 -0.384,0.384 -0.549,0.329 -0.112,-0.055 -0.715,-0.494 -1.868,-1.262 z m 7.525,-5.33 -0.548,3.242 c -0.166,0.549 -0.275,0.933 -0.331,1.098 -0.22,0.55 -0.384,0.88 -0.329,0.935 -0.11,0.165 -0.055,0.33 0.165,0.439 0.055,0.055 0.109,0.055 0.274,0.055 0.878,0.165 1.483,0.165 1.813,0.055 0.056,0 0.11,-0.055 0.165,-0.164 0.055,-0.055 0.055,-0.22 0,-0.549 -0.055,-0.221 -0.055,-0.438 0,-0.771 0.055,-0.549 0.11,-0.824 0.165,-0.934 0.056,-0.109 0.166,-0.109 0.275,-0.055 0.989,1.759 1.593,2.965 1.757,3.571 l 0.275,1.373 c 0.109,2.031 0.274,3.076 0.438,3.24 0.11,0.056 0.275,-0.054 0.496,-0.273 0.219,-0.33 0.384,-0.771 0.493,-1.374 0.055,-0.385 0.11,-0.824 0.22,-1.265 l -0.056,-2.032 c -0.109,-0.275 -0.438,-0.604 -0.933,-0.933 -0.22,-0.11 -0.494,-0.934 -0.879,-2.417 -1.043,-1.922 -1.483,-3.407 -1.263,-4.394 0.11,-0.551 0.44,-1.374 1.044,-2.475 0.219,-0.438 0.165,-0.768 -0.22,-0.987 -0.22,-0.109 -0.769,-0.219 -1.648,-0.274 -0.165,0.056 -0.33,0.165 -0.494,0.385 -0.165,0.275 -0.441,1.813 -0.879,4.504 z m -3.9,-5.273 c 0,-0.715 0.219,-1.373 0.549,-1.978 0.11,-0.219 0.33,-0.438 0.659,-0.604 0.275,-0.056 0.55,-0.056 0.77,0.054 0.219,0.112 0.385,0.551 0.44,1.374 0,0.604 -0.11,1.154 -0.275,1.483 -0.659,0.494 -1.044,0.879 -1.099,1.264 0,0.054 -0.055,0.11 -0.055,0.166 0,0.385 -0.055,0.823 -0.055,1.317 -0.165,0.77 -0.22,1.209 -0.22,1.264 -0.165,0.494 -0.274,0.823 -0.274,1.098 -0.055,0.164 0.055,0.329 0.219,0.44 0.66,0.385 1.154,0.494 1.593,0.439 0.166,0 0.33,-0.109 0.44,-0.274 0.604,-1.099 0.769,-2.638 0.439,-4.561 -0.33,-0.438 0.055,-1.317 1.264,-2.637 l 0.494,-0.712 c 0.495,-0.771 0.605,-1.265 0.33,-1.43 -1.153,-0.494 -2.417,-0.548 -3.845,-0.165 -0.109,0 -0.275,0.056 -0.439,0.165 -1.153,0.714 -1.923,1.648 -2.308,2.91 -0.055,0.167 -0.109,0.332 -0.165,0.441 -0.055,0.273 -0.164,0.823 -0.275,1.537 -0.055,0.11 -0.109,0.604 -0.164,1.483 0,0.054 0,0.165 0,0.384 0,0.275 -0.11,0.605 -0.22,1.1 -0.165,0.329 -0.109,0.604 0.165,0.769 0.495,0.329 0.879,0.22 1.099,-0.165 l 0.055,-0.109 c 0.44,-1.648 0.715,-3.239 0.824,-4.725 -0.002,-0.053 -0.002,-0.163 0.054,-0.328 z m -5.933,-0.824 c -0.11,0 -0.219,0.055 -0.274,0.22 -0.11,0.109 -0.11,0.331 0,0.66 0.055,0.109 0.274,0.273 0.549,0.494 0.659,0.494 1.099,0.823 1.318,0.878 0.659,-0.11 1.318,-0.658 1.977,-1.646 0.056,-0.167 0.165,-0.332 0.275,-0.441 0.219,-0.329 0.165,-0.604 -0.165,-0.768 l -0.494,-0.165 c -0.221,0 -0.879,0.165 -1.978,0.55 z m 17.579,0.551 1.043,0.768 c 0.879,0.494 1.428,0.988 1.703,1.539 0.385,0.768 0.109,1.978 -0.769,3.515 -0.385,0.604 -0.769,1.045 -1.154,1.264 -0.549,0.274 -1.099,0.274 -1.647,-0.055 -0.22,-0.11 -0.495,-0.275 -0.879,-0.604 -0.989,-0.715 -1.703,-1.373 -2.142,-1.922 -0.165,-0.274 -0.274,-0.438 -0.329,-0.495 -0.111,-0.056 -0.221,-0.056 -0.386,0.057 -0.164,0.054 -0.329,0.273 -0.548,0.603 -0.109,0.165 -0.109,0.385 -0.109,0.713 0,0.165 0.274,0.494 0.878,0.991 2.363,1.922 4.286,2.689 5.768,2.307 1.154,-0.329 2.033,-0.936 2.583,-1.924 1.098,-2.142 1.702,-3.352 1.813,-3.734 0.109,-0.165 0.275,-0.55 0.549,-1.21 0.055,-0.273 -0.055,-0.438 -0.274,-0.603 -2.418,-0.824 -4.45,-1.485 -6.208,-1.868 -0.275,-0.109 -0.385,-0.056 -0.495,0.054 -0.055,0.11 0,0.165 0.055,0.275 0.162,0.107 0.327,0.216 0.548,0.329 z"
   id="path18" />
	<path
   fill-rule="evenodd"
   clip-rule="evenodd"
   fill="#003586"
   d="M 137.135,208.59 H 92.146 v -43.725 h 44.274 v 10.218 h -29.827 v 6.206 h 26.531 v 10.162 h -26.531 v 6.921 h 30.542 z m 85.416,-61.576 c 0.605,-0.33 1.153,-0.659 1.318,-1.099 0.109,-0.11 0.165,-0.221 0.275,-0.331 h -10.877 c 0.605,0.551 1.758,1.045 2.748,1.483 2.197,0 4.339,-0.053 6.536,-0.053 z m -90.086,-1.43 c -0.11,0.496 -0.274,0.989 -0.384,1.483 23.18,0.056 46.306,0.056 69.487,0 -0.166,-0.494 -0.275,-0.988 -0.385,-1.483 -22.906,0 -45.811,0 -68.718,0 z m 94.481,-3.35 h -18.237 c 0.823,0.77 1.647,1.482 2.581,2.144 4.725,0 9.394,-0.056 14.118,-0.056 0.604,-0.716 1.153,-1.374 1.538,-2.088 z m -93.766,0 c -0.165,0.714 -0.274,1.428 -0.439,2.144 22.741,0.054 45.373,0.054 68.114,0 -0.11,-0.715 -0.219,-1.43 -0.33,-2.144 -22.467,0 -44.934,0 -67.345,0 z m -21.424,4.78 h 6.702 c 0.823,-0.385 1.978,-0.824 2.855,-1.43 h -11.425 l 0.219,0.274 c 0.551,0.441 1.1,0.826 1.649,1.156 z m 11.097,-2.637 c 0.934,-0.606 1.868,-1.32 2.802,-2.144 h -18.457 l 1.538,2.088 z m 3.625,-7.637 c 1.209,0.605 2.637,0.605 4.119,0.056 2.802,-2.033 5.714,-3.461 9.009,-3.955 h 27.081 1.153 27.081 c 3.295,0.494 6.262,1.922 9.064,3.955 1.482,0.549 2.856,0.549 4.12,-0.056 2.416,-1.593 4.339,-3.405 5.438,-5.217 l 2.087,-4.176 c -9.119,6.152 -20.544,2.199 -15.82,-4.943 l 0.11,-4.724 c -4.175,5.383 -8.954,7.579 -15.93,4.889 v -5.878 l 1.978,-1.207 V 110.1 h -4.394 l -0.879,2.416 -10.272,0.109 v -1.042 h -0.824 v -0.606 h 0.056 c 0.165,-2.142 1.702,-4.559 -0.056,-9.063 v -2.251 c 0.221,-0.165 0.386,-0.275 0.55,-0.44 0.714,-0.605 0.714,-2.361 -0.494,-3.681 0,0 0,0 -0.056,0 v -1.648 h -4.668 v 1.648 c -1.263,1.32 -1.263,3.076 -0.549,3.681 0.165,0.165 0.384,0.275 0.549,0.384 v 2.417 c -1.703,4.504 -0.165,6.866 0,8.953 v 0.606 h -0.824 v 1.042 l -10.217,-0.109 -0.934,-2.416 h -4.339 v 5.384 l 1.922,1.207 v 5.878 c -6.977,2.636 -11.701,0.494 -15.82,-4.889 l 0.056,4.724 c 4.723,7.142 -6.647,11.04 -15.82,4.943 l 2.087,4.176 c 1.096,1.812 2.964,3.569 5.436,5.217 z m 26.641,0.385 c 0.275,0 0.604,-0.385 0.604,-0.823 v -1.154 c 0,-0.494 -0.329,-0.823 -0.604,-0.823 h -7.086 c -0.274,0 -0.549,0.33 -0.549,0.823 v 1.154 c 0,0.438 0.275,0.823 0.549,0.823 z m 11.81,0 c 0.329,0 0.494,-0.385 0.494,-0.823 v -1.154 c 0,-0.494 -0.165,-0.823 -0.494,-0.823 h -7.141 c -0.274,0 -0.549,0.33 -0.549,0.823 v 1.154 c 0,0.438 0.275,0.823 0.549,0.823 z m -30.377,2.362 6.757,-1.978 c 0.329,-0.055 0.438,-0.494 0.329,-0.934 l -0.329,-1.099 c -0.165,-0.439 -0.496,-0.768 -0.825,-0.659 l -6.702,1.978 c -0.384,0.055 -0.439,0.494 -0.384,0.935 l 0.384,1.151 c 0.112,0.441 0.441,0.716 0.77,0.606 z m 53.943,-2.362 c 0.33,0 0.549,-0.385 0.549,-0.823 v -1.154 c 0,-0.494 -0.219,-0.823 -0.549,-0.823 h -7.086 c -0.274,0 -0.55,0.33 -0.55,0.823 v 1.154 c 0,0.438 0.275,0.823 0.55,0.823 z m -11.756,0 c 0.275,0 0.55,-0.385 0.55,-0.823 v -1.154 c 0,-0.494 -0.275,-0.823 -0.55,-0.823 h -7.085 c -0.331,0 -0.55,0.33 -0.55,0.823 v 1.154 c 0,0.438 0.219,0.823 0.55,0.823 z m 23.291,2.362 c 0.33,0.109 0.66,-0.165 0.77,-0.605 l 0.329,-1.151 c 0.109,-0.441 0,-0.826 -0.329,-0.935 l -6.757,-1.978 c -0.329,-0.109 -0.658,0.22 -0.769,0.659 l -0.33,1.099 c -0.11,0.44 0,0.879 0.33,0.934 z m 3.9,17.304 v -4.284 c -0.715,-1.265 -1.264,-2.583 -1.758,-4.01 h -1.099 v 8.294 z m 1.427,0 h 1.539 c -0.824,-0.88 -0.878,-1.1 -1.539,-2.088 z m -74.594,-7.142 v 7.307 h 2.855 v -8.294 h -2.471 c -0.11,0.329 -0.219,0.658 -0.384,0.987 z m -1.539,7.196 v -3.735 c -0.934,1.483 -1.099,2.197 -2.307,3.407 v 0.328 z m 67.455,-8.348 h 2.911 v 8.294 h -2.911 z m -4.394,0 h 2.911 v 8.294 h -2.911 z m -4.34,0 h 2.856 v 8.294 h -2.856 z m -4.395,0 h 2.912 v 8.294 h -2.912 z m -4.394,0 h 2.912 v 8.294 h -2.912 z m -4.34,0 h 2.857 v 8.294 h -2.857 z m -4.394,0 h 2.912 v 8.294 h -2.912 z m -4.394,0 h 2.912 v 8.294 h -2.912 z m -4.67,0 h 2.911 v 8.294 h -2.911 z m -4.394,0 h 2.912 v 8.294 h -2.912 z m -4.339,0 h 2.912 v 8.294 h -2.912 z m -4.394,0 h 2.91 v 8.294 h -2.91 z m -4.396,0 h 2.912 v 8.294 h -2.912 z m -4.339,0 h 2.911 v 8.294 h -2.911 z m -4.394,0 h 2.912 v 8.294 h -2.912 z m -55.205,12.798 2.526,0.109 35.815,-0.055 48.504,0.165 48.558,-0.165 35.815,0.055 2.526,-0.109 c 8.954,-4.286 13.348,-10.766 14.446,-19.94 -15.214,17.084 -25.926,7.195 -32.299,-9.009 -7.415,18.731 -17.358,24.115 -32.519,8.789 1.429,6.977 4.395,12.908 9.393,17.414 l -45.921,0.11 -45.922,-0.11 c 5.109,-4.506 8.021,-10.437 9.503,-17.414 -15.216,15.327 -25.158,9.942 -32.574,-8.789 -6.372,16.204 -17.083,26.093 -32.299,9.009 1.099,9.175 5.494,15.655 14.448,19.94 z m 126.504,47.075 h -13.072 v -43.669 h 17.358 l 7.8,27.301 7.58,-27.301 h 17.358 v 43.669 h -12.853 v -13.294 l 0.274,-6.864 0.714,-7.855 h -0.219 l -7.855,28.014 h -9.997 l -8.075,-28.014 0.495,6.426 0.494,6.867 v 14.72 z M 162.127,197 l -5.438,-5.931 c -3.351,1.591 -4.944,3.295 -4.779,5.217 0,2.691 1.429,4.01 4.284,4.01 1.264,0 2.856,-0.549 4.779,-1.647 0,0 0.055,0 0.219,0 1.43,-0.605 1.76,-1.154 0.935,-1.649 z m 10.932,11.37 -3.571,-3.79 c -3.79,2.691 -8.514,4.23 -14.227,4.505 -9.997,-0.439 -15.104,-4.34 -15.436,-11.59 0,-5.878 3.021,-10.491 9.009,-13.788 -2.691,-2.691 -3.955,-5.384 -3.79,-8.075 0.165,-6.811 5.162,-10.437 14.94,-10.931 9.064,0.659 13.843,4.449 14.501,11.371 0,4.943 -2.307,8.678 -6.922,11.205 l 3.572,3.792 c 1.153,-0.661 2.087,-1.813 2.856,-3.571 h 11.645 c -1.922,3.79 -4.339,7.358 -7.36,10.71 l 9.997,10.162 z M 160.26,172.28 c -2.855,0.165 -4.284,1.265 -4.284,3.352 -0.165,1.759 1.099,3.407 3.791,4.998 3.79,-1.591 5.218,-3.733 4.284,-6.426 -0.495,-1.098 -1.759,-1.759 -3.791,-1.924 z"
   id="path19" />
</g>

</svg>
